CommissionerFlair-BlackItalic.ufo
<glyph name="dollar" format="2">
  <advance width="588"/>
  <unicode hex="0024"/>
  <outline>
    <contour>
      <point x="262" y="-15" type="curve" smooth="yes"/>
      <point x="445" y="-15"/>
      <point x="525" y="38"/>
      <point x="555" y="179" type="curve" smooth="yes"/>
      <point x="579" y="292"/>
      <point x="536" y="351"/>
      <point x="397" y="408" type="curve" smooth="yes"/>
      <point x="338" y="432"/>
      <point x="315" y="457"/>
      <point x="320" y="482" type="curve" smooth="yes"/>
      <point x="325" y="505"/>
      <point x="347" y="515"/>
      <point x="379" y="515" type="curve" smooth="yes"/>
      <point x="410" y="515"/>
      <point x="481" y="492"/>
      <point x="560" y="451" type="curve"/>
      <point x="619" y="644" type="line"/>
      <point x="563" y="659"/>
      <point x="438" y="700"/>
      <point x="347" y="700" type="curve" smooth="yes"/>
      <point x="183" y="700"/>
      <point x="105" y="640"/>
      <point x="78" y="509" type="curve" smooth="yes"/>
      <point x="51" y="378"/>
      <point x="114" y="317"/>
      <point x="219" y="275" type="curve" smooth="yes"/>
      <point x="282" y="250"/>
      <point x="318" y="227"/>
      <point x="313" y="201" type="curve" smooth="yes"/>
      <point x="308" y="178"/>
      <point x="296" y="166"/>
      <point x="252" y="166" type="curve" smooth="yes"/>
      <point x="199" y="166"/>
      <point x="111" y="200"/>
      <point x="48" y="238" type="curve"/>
      <point x="-10" y="37" type="line"/>
      <point x="44" y="19"/>
      <point x="136" y="-15"/>
    </contour>
    <contour>
      <point x="129" y="-137" type="curve"/>
      <point x="312" y="-137" type="line"/>
      <point x="322" y="-56"/>
      <point x="333" y="19"/>
      <point x="349" y="93" type="curve"/>
      <point x="189" y="93" type="line"/>
      <point x="173" y="19"/>
      <point x="153" y="-56"/>
    </contour>
    <contour>
      <point x="298" y="604" type="curve"/>
      <point x="458" y="604" type="line"/>
      <point x="471" y="667"/>
      <point x="490" y="733"/>
      <point x="511" y="803" type="curve"/>
      <point x="329" y="803" type="line"/>
      <point x="321" y="733"/>
      <point x="311" y="667"/>
    </contour>
  </outline>
</glyph>
<glyph name="ampersand" format="2">
  <advance width="807"/>
  <unicode hex="0026"/>
  <outline>
    <contour>
      <point x="469" y="0" type="curve"/>
      <point x="763" y="0" type="line"/>
      <point x="687" y="82"/>
      <point x="630" y="164"/>
      <point x="573" y="246" type="curve"/>
      <point x="424" y="461" type="line" smooth="yes"/>
      <point x="398" y="498"/>
      <point x="393" y="529"/>
      <point x="400" y="559" type="curve" smooth="yes"/>
      <point x="405" y="581"/>
      <point x="421" y="596"/>
      <point x="444" y="598" type="curve"/>
      <point x="468" y="594"/>
      <point x="484" y="568"/>
      <point x="479" y="544" type="curve" smooth="yes"/>
      <point x="474" y="523"/>
      <point x="453" y="496"/>
      <point x="410" y="467" type="curve"/>
      <point x="476" y="369" type="line"/>
      <point x="540" y="409"/>
      <point x="631" y="450"/>
      <point x="650" y="537" type="curve" smooth="yes"/>
      <point x="674" y="648"/>
      <point x="575" y="729"/>
      <point x="431" y="729" type="curve" smooth="yes"/>
      <point x="318" y="729"/>
      <point x="218" y="693"/>
      <point x="193" y="575" type="curve" smooth="yes"/>
      <point x="178" y="504"/>
      <point x="198" y="424"/>
      <point x="235" y="370" type="curve" smooth="yes"/>
      <point x="393" y="136" type="line"/>
      <point x="425" y="91"/>
      <point x="456" y="45"/>
    </contour>
    <contour>
      <point x="214" y="-14" type="curve" smooth="yes"/>
      <point x="286" y="-14"/>
      <point x="357" y="16"/>
      <point x="428" y="64" type="curve"/>
      <point x="445" y="64" type="line"/>
      <point x="440" y="94" type="line"/>
      <point x="365" y="191" type="line"/>
      <point x="340" y="169"/>
      <point x="305" y="154"/>
      <point x="285" y="154" type="curve"/>
      <point x="240" y="158"/>
      <point x="222" y="195"/>
      <point x="231" y="226" type="curve" smooth="yes"/>
      <point x="237" y="252"/>
      <point x="253" y="278"/>
      <point x="290" y="301" type="curve"/>
      <point x="221" y="416" type="line"/>
      <point x="126" y="381"/>
      <point x="38" y="325"/>
      <point x="15" y="217" type="curve" smooth="yes"/>
      <point x="-11" y="96"/>
      <point x="52" y="-14"/>
    </contour>
    <contour>
      <point x="600" y="156" type="line"/>
      <point x="667" y="213"/>
      <point x="735" y="270"/>
      <point x="810" y="319" type="curve"/>
      <point x="640" y="451" type="line"/>
      <point x="602" y="388"/>
      <point x="555" y="332"/>
      <point x="508" y="277" type="curve"/>
    </contour>
  </outline>
</glyph>
<glyph name="quotesingle" format="2">
  <advance width="252"/>
  <unicode hex="0027"/>
  <outline>
    <contour>
      <point x="62" y="359" type="curve"/>
      <point x="222" y="360" type="line"/>
      <point x="258" y="490"/>
      <point x="294" y="618"/>
      <point x="340" y="745" type="curve"/>
      <point x="111" y="740" type="line"/>
      <point x="101" y="614"/>
      <point x="82" y="487"/>
    </contour>
  </outline>
</glyph>
<glyph name="asterisk" format="2">
  <advance width="513"/>
  <unicode hex="002A"/>
  <outline>
    <contour>
      <point x="437" y="303" type="curve"/>
      <point x="535" y="412" type="line"/>
      <point x="467" y="454"/>
      <point x="403" y="498"/>
      <point x="339" y="543" type="curve"/>
      <point x="286" y="602"/>
      <point x="236" y="662"/>
      <point x="187" y="725" type="curve"/>
      <point x="89" y="616" type="line"/>
      <point x="156" y="574"/>
      <point x="222" y="529"/>
      <point x="285" y="483" type="curve"/>
      <point x="337" y="425"/>
      <point x="388" y="364"/>
    </contour>
    <contour>
      <point x="112" y="372" type="line"/>
      <point x="182" y="409"/>
      <point x="253" y="443"/>
      <point x="325" y="476" type="curve"/>
      <point x="402" y="491"/>
      <point x="479" y="505"/>
      <point x="557" y="517" type="curve"/>
      <point x="512" y="656" type="line"/>
      <point x="442" y="618"/>
      <point x="371" y="584"/>
      <point x="300" y="552" type="curve"/>
      <point x="222" y="536"/>
      <point x="145" y="522"/>
      <point x="66" y="511" type="curve"/>
    </contour>
    <contour>
      <point x="191" y="301" type="curve"/>
      <point x="335" y="270" type="line"/>
      <point x="338" y="349"/>
      <point x="344" y="428"/>
      <point x="351" y="506" type="curve"/>
      <point x="377" y="580"/>
      <point x="403" y="654"/>
      <point x="432" y="728" type="curve"/>
      <point x="289" y="758" type="line"/>
      <point x="286" y="679"/>
      <point x="280" y="601"/>
      <point x="273" y="522" type="curve"/>
      <point x="247" y="448"/>
      <point x="221" y="374"/>
    </contour>
  </outline>
</glyph>
<glyph name="comma" format="2">
  <advance width="272"/>
  <unicode hex="002C"/>
  <outline>
    <contour>
      <point x="-91" y="-157" type="curve"/>
      <point x="25" y="-155" type="line"/>
      <point x="73" y="-114"/>
      <point x="194" y="-10"/>
      <point x="212" y="78" type="curve" smooth="yes"/>
      <point x="226" y="147"/>
      <point x="207" y="203"/>
      <point x="133" y="220" type="curve"/>
      <point x="19" y="211" type="line"/>
      <point x="21" y="156"/>
      <point x="15" y="101"/>
      <point x="5" y="52" type="curve" smooth="yes"/>
      <point x="-8" y="-11"/>
      <point x="-53" y="-99"/>
    </contour>
  </outline>
</glyph>
<glyph name="hyphen" format="2">
  <advance width="430"/>
  <unicode hex="002D"/>
  <outline>
    <contour>
      <point x="29" y="201" type="line"/>
      <point x="93" y="208"/>
      <point x="153" y="209"/>
      <point x="205" y="209" type="curve"/>
      <point x="257" y="209"/>
      <point x="317" y="208"/>
      <point x="379" y="201" type="curve"/>
      <point x="422" y="407" type="line"/>
      <point x="358" y="400"/>
      <point x="297" y="399"/>
      <point x="245" y="399" type="curve"/>
      <point x="193" y="399"/>
      <point x="134" y="400"/>
      <point x="72" y="407" type="curve"/>
    </contour>
  </outline>
</glyph>
<glyph name="slash" format="2">
  <advance width="485"/>
  <unicode hex="002F"/>
  <outline>
    <contour>
      <point x="-57" y="0" type="curve"/>
      <point x="197" y="0" type="line"/>
      <point x="224" y="74"/>
      <point x="256" y="137"/>
      <point x="306" y="228" type="curve"/>
      <point x="440" y="474" type="line"/>
      <point x="493" y="571"/>
      <point x="530" y="636"/>
      <point x="586" y="713" type="curve"/>
      <point x="333" y="713" type="line"/>
      <point x="305" y="636"/>
      <point x="271" y="571"/>
      <point x="220" y="477" type="curve"/>
      <point x="84" y="228" type="line"/>
      <point x="34" y="137"/>
      <point x="-3" y="74"/>
    </contour>
  </outline>
</glyph>
<glyph name="three" format="2">
  <advance width="596"/>
  <unicode hex="0033"/>
  <outline>
    <contour>
      <point x="245" y="-16" type="curve" smooth="yes"/>
      <point x="443" y="-16"/>
      <point x="525" y="44"/>
      <point x="551" y="169" type="curve" smooth="yes"/>
      <point x="573" y="272"/>
      <point x="515" y="329"/>
      <point x="454" y="349" type="curve"/>
      <point x="457" y="365" type="line"/>
      <point x="526" y="378"/>
      <point x="584" y="406"/>
      <point x="602" y="492" type="curve" smooth="yes"/>
      <point x="626" y="605"/>
      <point x="533" y="706"/>
      <point x="356" y="706" type="curve" smooth="yes"/>
      <point x="291" y="706"/>
      <point x="191" y="679"/>
      <point x="123" y="663" type="curve"/>
      <point x="95" y="438" type="line"/>
      <point x="170" y="480"/>
      <point x="267" y="516"/>
      <point x="299" y="516" type="curve"/>
      <point x="346" y="512"/>
      <point x="365" y="493"/>
      <point x="358" y="458" type="curve" smooth="yes"/>
      <point x="351" y="425"/>
      <point x="326" y="419"/>
      <point x="276" y="416" type="curve"/>
      <point x="245" y="416"/>
      <point x="215" y="417"/>
      <point x="186" y="425" type="curve"/>
      <point x="151" y="259" type="line"/>
      <point x="188" y="266"/>
      <point x="217" y="267"/>
      <point x="253" y="267" type="curve"/>
      <point x="303" y="264"/>
      <point x="329" y="249"/>
      <point x="323" y="217" type="curve" smooth="yes"/>
      <point x="317" y="188"/>
      <point x="294" y="177"/>
      <point x="248" y="174" type="curve"/>
      <point x="194" y="174"/>
      <point x="106" y="208"/>
      <point x="42" y="246" type="curve"/>
      <point x="-15" y="39" type="line"/>
      <point x="39" y="22"/>
      <point x="125" y="-16"/>
    </contour>
  </outline>
</glyph>
<glyph name="four" format="2">
  <advance width="629"/>
  <unicode hex="0034"/>
  <outline>
    <contour>
      <point x="234" y="0" type="curve"/>
      <point x="500" y="0" type="line"/>
      <point x="498" y="69"/>
      <point x="509" y="129"/>
      <point x="527" y="213" type="curve"/>
      <point x="577" y="449" type="line"/>
      <point x="593" y="528"/>
      <point x="612" y="607"/>
      <point x="645" y="690" type="curve"/>
      <point x="376" y="690" type="line"/>
      <point x="354" y="651"/>
      <point x="321" y="613"/>
      <point x="287" y="575" type="curve"/>
      <point x="187" y="463" type="line"/>
      <point x="138" y="408"/>
      <point x="71" y="335"/>
      <point x="28" y="298" type="curve"/>
      <point x="-7" y="130" type="line"/>
      <point x="355" y="130" type="line"/>
      <point x="421" y="130"/>
      <point x="516" y="128"/>
      <point x="574" y="118" type="curve"/>
      <point x="620" y="336" type="line"/>
      <point x="558" y="325"/>
      <point x="461" y="324"/>
      <point x="395" y="324" type="curve"/>
      <point x="373" y="304" type="line"/>
      <point x="207" y="304" type="line"/>
      <point x="225" y="291" type="line"/>
      <point x="252" y="329"/>
      <point x="285" y="368"/>
      <point x="319" y="406" type="curve"/>
      <point x="446" y="547" type="line"/>
      <point x="486" y="592"/>
      <point x="523" y="630"/>
      <point x="561" y="660" type="curve"/>
      <point x="383" y="597" type="line"/>
      <point x="382" y="531"/>
      <point x="370" y="466"/>
      <point x="356" y="400" type="curve"/>
      <point x="323" y="241" type="line"/>
      <point x="297" y="213" type="line"/>
      <point x="279" y="129"/>
      <point x="266" y="69"/>
    </contour>
  </outline>
</glyph>
<glyph name="six" format="2">
  <advance width="628"/>
  <unicode hex="0036"/>
  <outline>
    <contour>
      <point x="305" y="-16" type="curve" smooth="yes"/>
      <point x="487" y="-16"/>
      <point x="565" y="84"/>
      <point x="589" y="196" type="curve" smooth="yes"/>
      <point x="619" y="338"/>
      <point x="541" y="432"/>
      <point x="420" y="432" type="curve" smooth="yes"/>
      <point x="381" y="432"/>
      <point x="338" y="420"/>
      <point x="301" y="395" type="curve"/>
      <point x="281" y="395" type="line"/>
      <point x="215" y="338"/>
      <point x="210" y="324"/>
      <point x="256" y="264" type="curve"/>
      <point x="273" y="280"/>
      <point x="301" y="290"/>
      <point x="328" y="291" type="curve"/>
      <point x="360" y="287"/>
      <point x="379" y="265"/>
      <point x="371" y="230" type="curve" smooth="yes"/>
      <point x="364" y="194"/>
      <point x="339" y="178"/>
      <point x="312" y="174" type="curve"/>
      <point x="277" y="184"/>
      <point x="247" y="221"/>
      <point x="274" y="348" type="curve" smooth="yes"/>
      <point x="300" y="475"/>
      <point x="341" y="512"/>
      <point x="421" y="516" type="curve"/>
      <point x="450" y="516"/>
      <point x="524" y="492"/>
      <point x="584" y="464" type="curve"/>
      <point x="646" y="666" type="line"/>
      <point x="591" y="681"/>
      <point x="489" y="706"/>
      <point x="421" y="706" type="curve" smooth="yes"/>
      <point x="262" y="706"/>
      <point x="113" y="647"/>
      <point x="56" y="376" type="curve" smooth="yes"/>
      <point x="5" y="136"/>
      <point x="94" y="-16"/>
    </contour>
  </outline>
</glyph>
<glyph name="eight" format="2">
  <advance width="631"/>
  <unicode hex="0038"/>
  <outline>
    <contour>
      <point x="296" y="-16" type="curve" smooth="yes"/>
      <point x="479" y="-16"/>
      <point x="562" y="50"/>
      <point x="587" y="166" type="curve" smooth="yes"/>
      <point x="611" y="277"/>
      <point x="553" y="331"/>
      <point x="491" y="354" type="curve"/>
      <point x="494" y="370" type="line"/>
      <point x="572" y="380"/>
      <point x="625" y="415"/>
      <point x="641" y="492" type="curve" smooth="yes"/>
      <point x="665" y="608"/>
      <point x="571" y="706"/>
      <point x="379" y="706" type="curve" smooth="yes"/>
      <point x="232" y="706"/>
      <point x="128" y="655"/>
      <point x="106" y="549" type="curve" smooth="yes"/>
      <point x="88" y="464"/>
      <point x="133" y="406"/>
      <point x="192" y="389" type="curve"/>
      <point x="189" y="373" type="line"/>
      <point x="117" y="361"/>
      <point x="43" y="329"/>
      <point x="21" y="226" type="curve" smooth="yes"/>
      <point x="-6" y="101"/>
      <point x="71" y="-16"/>
    </contour>
    <contour>
      <point x="305" y="168" type="curve"/>
      <point x="265" y="171"/>
      <point x="243" y="198"/>
      <point x="250" y="228" type="curve" smooth="yes"/>
      <point x="257" y="258"/>
      <point x="282" y="270"/>
      <point x="314" y="274" type="curve"/>
      <point x="350" y="269"/>
      <point x="375" y="248"/>
      <point x="369" y="216" type="curve" smooth="yes"/>
      <point x="363" y="186"/>
      <point x="342" y="171"/>
    </contour>
    <contour>
      <point x="361" y="424" type="curve"/>
      <point x="330" y="428"/>
      <point x="308" y="453"/>
      <point x="315" y="484" type="curve" smooth="yes"/>
      <point x="323" y="520"/>
      <point x="347" y="528"/>
      <point x="372" y="533" type="curve"/>
      <point x="402" y="528"/>
      <point x="424" y="509"/>
      <point x="417" y="473" type="curve" smooth="yes"/>
      <point x="411" y="441"/>
      <point x="388" y="428"/>
    </contour>
  </outline>
</glyph>
<glyph name="less" format="2">
  <advance width="590"/>
  <unicode hex="003C"/>
  <outline>
    <contour>
      <point x="502" y="23" type="curve"/>
      <point x="547" y="233" type="line"/>
      <point x="502" y="239"/>
      <point x="456" y="254"/>
      <point x="413" y="269" type="curve"/>
      <point x="344" y="293" type="line"/>
      <point x="347" y="309" type="line"/>
      <point x="425" y="331" type="line"/>
      <point x="476" y="346"/>
      <point x="528" y="359"/>
      <point x="575" y="365" type="curve"/>
      <point x="623" y="595" type="line"/>
      <point x="541" y="559"/>
      <point x="464" y="533"/>
      <point x="398" y="511" type="curve"/>
      <point x="297" y="478" type="line"/>
      <point x="230" y="456"/>
      <point x="154" y="432"/>
      <point x="75" y="414" type="curve"/>
      <point x="30" y="204" type="line"/>
      <point x="102" y="186"/>
      <point x="167" y="162"/>
      <point x="225" y="140" type="curve"/>
      <point x="311" y="107" type="line"/>
      <point x="368" y="85"/>
      <point x="435" y="59"/>
    </contour>
  </outline>
</glyph>
<glyph name="at" format="2">
  <advance width="902"/>
  <unicode hex="0040"/>
  <outline>
    <contour>
      <point x="492" y="-157" type="curve" smooth="yes"/>
      <point x="578" y="-157"/>
      <point x="691" y="-128"/>
      <point x="776" y="-95" type="curve"/>
      <point x="776" y="45" type="line"/>
      <point x="662" y="-12"/>
      <point x="547" y="-32"/>
      <point x="492" y="-37" type="curve"/>
      <point x="241" y="-32"/>
      <point x="127" y="119"/>
      <point x="176" y="338" type="curve" smooth="yes"/>
      <point x="208" y="482"/>
      <point x="303" y="592"/>
      <point x="487" y="597" type="curve"/>
      <point x="678" y="592"/>
      <point x="790" y="483"/>
      <point x="751" y="287" type="curve" smooth="yes"/>
      <point x="740" y="231"/>
      <point x="698" y="187"/>
      <point x="668" y="183" type="curve"/>
      <point x="635" y="187"/>
      <point x="626" y="212"/>
      <point x="644" y="297" type="curve"/>
      <point x="652" y="334" type="line"/>
      <point x="666" y="386"/>
      <point x="683" y="440"/>
      <point x="706" y="490" type="curve"/>
      <point x="536" y="482" type="line"/>
      <point x="519" y="432" type="line"/>
      <point x="506" y="432" type="line"/>
      <point x="484" y="475"/>
      <point x="442" y="495"/>
      <point x="408" y="495" type="curve" smooth="yes"/>
      <point x="316" y="495"/>
      <point x="255" y="409"/>
      <point x="236" y="314" type="curve" smooth="yes"/>
      <point x="210" y="183"/>
      <point x="268" y="67"/>
      <point x="375" y="67" type="curve" smooth="yes"/>
      <point x="404" y="67"/>
      <point x="451" y="91"/>
      <point x="484" y="132" type="curve"/>
      <point x="496" y="132" type="line"/>
      <point x="521" y="89"/>
      <point x="585" y="59"/>
      <point x="665" y="59" type="curve" smooth="yes"/>
      <point x="722" y="59"/>
      <point x="850" y="117"/>
      <point x="879" y="261" type="curve" smooth="yes"/>
      <point x="930" y="515"/>
      <point x="760" y="717"/>
      <point x="489" y="717" type="curve" smooth="yes"/>
      <point x="291" y="717"/>
      <point x="101" y="610"/>
      <point x="49" y="367" type="curve" smooth="yes"/>
      <point x="-12" y="83"/>
      <point x="156" y="-157"/>
    </contour>
    <contour>
      <point x="430" y="218" type="curve"/>
      <point x="409" y="220"/>
      <point x="398" y="252"/>
      <point x="404" y="282" type="curve" smooth="yes"/>
      <point x="411" y="316"/>
      <point x="430" y="338"/>
      <point x="455" y="341" type="curve"/>
      <point x="468" y="339"/>
      <point x="475" y="334"/>
      <point x="479" y="328" type="curve"/>
      <point x="460" y="239" type="line"/>
      <point x="453" y="226"/>
      <point x="443" y="220"/>
    </contour>
  </outline>
</glyph>
<glyph name="A" format="2">
  <advance width="753"/>
  <unicode hex="0041"/>
  <anchor x="324" y="0" name="bottom"/>
  <anchor x="700" y="0" name="ogonek"/>
  <anchor x="472" y="713" name="top"/>
  <outline>
    <contour>
      <point x="-57" y="0" type="curve"/>
      <point x="240" y="0" type="line"/>
      <point x="255" y="68"/>
      <point x="276" y="140"/>
      <point x="303" y="207" type="curve"/>
      <point x="426" y="510" type="line"/>
      <point x="442" y="510" type="line"/>
      <point x="444" y="205" type="line"/>
      <point x="444" y="140"/>
      <point x="440" y="69"/>
      <point x="425" y="0" type="curve"/>
      <point x="706" y="0" type="line"/>
      <point x="690" y="75"/>
      <point x="673" y="163"/>
      <point x="667" y="239" type="curve"/>
      <point x="647" y="486" type="line"/>
      <point x="640" y="574"/>
      <point x="641" y="637"/>
      <point x="650" y="713" type="curve"/>
      <point x="297" y="713" type="line"/>
      <point x="274" y="637"/>
      <point x="245" y="571"/>
      <point x="202" y="485" type="curve"/>
      <point x="81" y="243" type="line"/>
      <point x="42" y="166"/>
      <point x="-7" y="75"/>
    </contour>
    <contour>
      <point x="199" y="116" type="line"/>
      <point x="522" y="116" type="line"/>
      <point x="536" y="296" type="line"/>
      <point x="264" y="296" type="line"/>
    </contour>
  </outline>
</glyph>
<glyph name="F" format="2">
  <advance width="586"/>
  <unicode hex="0046"/>
  <outline>
    <contour>
      <point x="-21" y="0" type="curve"/>
      <point x="257" y="0" type="line"/>
      <point x="260" y="74"/>
      <point x="267" y="138"/>
      <point x="286" y="229" type="curve"/>
      <point x="329" y="434" type="line"/>
      <point x="349" y="529"/>
      <point x="370" y="596"/>
      <point x="399" y="673" type="curve"/>
      <point x="407" y="713" type="line"/>
      <point x="129" y="713" type="line"/>
      <point x="125" y="636"/>
      <point x="118" y="569"/>
      <point x="98" y="474" type="curve"/>
      <point x="46" y="229" type="line"/>
      <point x="27" y="138"/>
      <point x="7" y="74"/>
    </contour>
    <contour>
      <point x="227" y="245" type="line"/>
      <point x="349" y="245" type="line"/>
      <point x="428" y="245"/>
      <point x="481" y="243"/>
      <point x="537" y="234" type="curve"/>
      <point x="583" y="450" type="line"/>
      <point x="526" y="440"/>
      <point x="471" y="438"/>
      <point x="389" y="438" type="curve"/>
      <point x="267" y="438" type="line"/>
    </contour>
    <contour>
      <point x="299" y="511" type="line"/>
      <point x="406" y="511" type="line"/>
      <point x="492" y="511"/>
      <point x="550" y="505"/>
      <point x="604" y="493" type="curve"/>
      <point x="650" y="713" type="line"/>
      <point x="341" y="713" type="line"/>
    </contour>
  </outline>
</glyph>
<glyph name="K" format="2">
  <advance width="734"/>
  <unicode hex="004B"/>
  <anchor x="323" y="0" name="bottom"/>
  <anchor x="473" y="713" name="top"/>
  <outline>
    <contour>
      <point x="379" y="0" type="curve"/>
      <point x="691" y="0" type="line"/>
      <point x="652" y="64"/>
      <point x="605" y="175"/>
      <point x="574" y="257" type="curve"/>
      <point x="504" y="436" type="line"/>
      <point x="502" y="328" type="line"/>
      <point x="624" y="478" type="line"/>
      <point x="689" y="558"/>
      <point x="753" y="636"/>
      <point x="830" y="713" type="curve"/>
      <point x="502" y="713" type="line"/>
      <point x="482" y="654"/>
      <point x="457" y="609"/>
      <point x="427" y="563" type="curve"/>
      <point x="364" y="467" type="line"/>
      <point x="325" y="467" type="line"/>
      <point x="286" y="278" type="line"/>
      <point x="329" y="278" type="line"/>
      <point x="358" y="156" type="line"/>
      <point x="369" y="109"/>
      <point x="379" y="61"/>
    </contour>
    <contour>
      <point x="-21" y="0" type="curve"/>
      <point x="262" y="0" type="line"/>
      <point x="265" y="74"/>
      <point x="272" y="138"/>
      <point x="291" y="229" type="curve"/>
      <point x="343" y="474" type="line"/>
      <point x="363" y="569"/>
      <point x="383" y="636"/>
      <point x="412" y="713" type="curve"/>
      <point x="129" y="713" type="line"/>
      <point x="125" y="636"/>
      <point x="118" y="569"/>
      <point x="98" y="474" type="curve"/>
      <point x="46" y="229" type="line"/>
      <point x="27" y="138"/>
      <point x="7" y="74"/>
    </contour>
  </outline>
</glyph>
<glyph name="M" format="2">
  <advance width="971"/>
  <unicode hex="004D"/>
  <anchor x="432" y="0" name="bottom"/>
  <anchor x="582" y="713" name="top"/>
  <outline>
    <contour>
      <point x="-38" y="0" type="curve"/>
      <point x="231" y="0" type="line"/>
      <point x="237" y="71"/>
      <point x="249" y="135"/>
      <point x="268" y="191" type="curve"/>
      <point x="309" y="312" type="line"/>
      <point x="325" y="312" type="line"/>
      <point x="340" y="183" type="line"/>
      <point x="347" y="123"/>
      <point x="344" y="58"/>
      <point x="339" y="0" type="curve"/>
      <point x="536" y="0" type="line"/>
      <point x="554" y="57"/>
      <point x="577" y="121"/>
      <point x="605" y="183" type="curve"/>
      <point x="663" y="312" type="line"/>
      <point x="679" y="312" type="line"/>
      <point x="668" y="191" type="line"/>
      <point x="663" y="135"/>
      <point x="649" y="70"/>
      <point x="626" y="0" type="curve"/>
      <point x="903" y="0" type="line"/>
      <point x="898" y="73"/>
      <point x="896" y="142"/>
      <point x="903" y="229" type="curve"/>
      <point x="922" y="472" type="line"/>
      <point x="929" y="558"/>
      <point x="941" y="635"/>
      <point x="957" y="713" type="curve"/>
      <point x="672" y="713" type="line"/>
      <point x="652" y="647"/>
      <point x="629" y="596"/>
      <point x="601" y="540" type="curve"/>
      <point x="519" y="377" type="line"/>
      <point x="504" y="377" type="line"/>
      <point x="483" y="540" type="line"/>
      <point x="476" y="596"/>
      <point x="470" y="650"/>
      <point x="478" y="713" type="curve"/>
      <point x="202" y="713" type="line"/>
      <point x="187" y="634"/>
      <point x="166" y="558"/>
      <point x="137" y="472" type="curve"/>
      <point x="56" y="229" type="line"/>
      <point x="27" y="143"/>
      <point x="-4" y="70"/>
    </contour>
  </outline>
</glyph>
<glyph name="N" format="2">
  <advance width="756"/>
  <unicode hex="004E"/>
  <anchor x="326" y="0" name="bottom"/>
  <anchor x="476" y="713" name="top"/>
  <outline>
    <contour>
      <point x="-21" y="0" type="curve"/>
      <point x="246" y="0" type="line"/>
      <point x="249" y="74"/>
      <point x="256" y="138"/>
      <point x="275" y="229" type="curve"/>
      <point x="295" y="324" type="line"/>
      <point x="311" y="324" type="line"/>
      <point x="362" y="200" type="line"/>
      <point x="391" y="129"/>
      <point x="412" y="68"/>
      <point x="421" y="0" type="curve"/>
      <point x="671" y="0" type="line"/>
      <point x="674" y="74"/>
      <point x="681" y="138"/>
      <point x="700" y="229" type="curve"/>
      <point x="752" y="474" type="line"/>
      <point x="772" y="569"/>
      <point x="792" y="636"/>
      <point x="821" y="713" type="curve"/>
      <point x="554" y="713" type="line"/>
      <point x="550" y="636"/>
      <point x="543" y="569"/>
      <point x="523" y="474" type="curve"/>
      <point x="505" y="389" type="line"/>
      <point x="488" y="389" type="line"/>
      <point x="440" y="512" type="line"/>
      <point x="417" y="570"/>
      <point x="400" y="634"/>
      <point x="387" y="713" type="curve"/>
      <point x="129" y="713" type="line"/>
      <point x="125" y="636"/>
      <point x="118" y="569"/>
      <point x="98" y="474" type="curve"/>
      <point x="46" y="229" type="line"/>
      <point x="27" y="138"/>
      <point x="7" y="74"/>
    </contour>
  </outline>
</glyph>
<glyph name="P" format="2">
  <advance width="678"/>
  <unicode hex="0050"/>
  <outline>
    <contour>
      <point x="407" y="210" type="curve"/>
      <point x="579" y="210"/>
      <point x="667" y="289"/>
      <point x="699" y="442" type="curve" smooth="yes"/>
      <point x="740" y="636"/>
      <point x="647" y="720"/>
      <point x="462" y="720" type="curve"/>
      <point x="320" y="720"/>
      <point x="207" y="713"/>
      <point x="129" y="713" type="curve"/>
      <point x="335" y="528" type="line"/>
      <point x="411" y="528" type="line" smooth="yes"/>
      <point x="444" y="528"/>
      <point x="461" y="498"/>
      <point x="451" y="451" type="curve" smooth="yes"/>
      <point x="441" y="403"/>
      <point x="423" y="385"/>
      <point x="383" y="385" type="curve" smooth="yes"/>
      <point x="291" y="385" type="line"/>
      <point x="255" y="213" type="line"/>
      <point x="294" y="213"/>
      <point x="358" y="210"/>
    </contour>
    <contour>
      <point x="-21" y="0" type="curve"/>
      <point x="258" y="0" type="line"/>
      <point x="261" y="74"/>
      <point x="268" y="138"/>
      <point x="287" y="229" type="curve"/>
      <point x="330" y="434" type="line"/>
      <point x="350" y="529"/>
      <point x="371" y="596"/>
      <point x="400" y="673" type="curve"/>
      <point x="129" y="713" type="line"/>
      <point x="125" y="636"/>
      <point x="118" y="569"/>
      <point x="98" y="474" type="curve"/>
      <point x="46" y="229" type="line"/>
      <point x="27" y="138"/>
      <point x="7" y="74"/>
    </contour>
  </outline>
</glyph>
<glyph name="U" format="2">
  <advance width="726"/>
  <unicode hex="0055"/>
  <anchor x="311" y="0" name="bottom"/>
  <anchor x="462" y="0" name="ogonek"/>
  <anchor x="461" y="713" name="top"/>
  <anchor x="813" y="713" name="topright"/>
  <outline>
    <contour>
      <point x="330" y="-16" type="curve" smooth="yes"/>
      <point x="568" y="-16"/>
      <point x="655" y="94"/>
      <point x="690" y="254" type="curve" smooth="yes"/>
      <point x="698" y="291"/>
      <point x="714" y="391"/>
      <point x="731" y="474" type="curve"/>
      <point x="751" y="569"/>
      <point x="771" y="636"/>
      <point x="800" y="713" type="curve"/>
      <point x="516" y="713" type="line"/>
      <point x="512" y="636"/>
      <point x="505" y="569"/>
      <point x="485" y="474" type="curve"/>
      <point x="446" y="288" type="line" smooth="yes"/>
      <point x="432" y="223"/>
      <point x="402" y="187"/>
      <point x="349" y="182" type="curve"/>
      <point x="300" y="187"/>
      <point x="284" y="233"/>
      <point x="299" y="303" type="curve" smooth="yes"/>
      <point x="335" y="474" type="line"/>
      <point x="355" y="569"/>
      <point x="375" y="636"/>
      <point x="404" y="713" type="curve"/>
      <point x="121" y="713" type="line"/>
      <point x="117" y="636"/>
      <point x="110" y="569"/>
      <point x="90" y="474" type="curve"/>
      <point x="76" y="411"/>
      <point x="57" y="346"/>
      <point x="50" y="313" type="curve" smooth="yes"/>
      <point x="10" y="126"/>
      <point x="92" y="-16"/>
    </contour>
  </outline>
</glyph>
<glyph name="W" format="2">
  <advance width="1071"/>
  <unicode hex="0057"/>
  <anchor x="479" y="0" name="bottom"/>
  <anchor x="629" y="713" name="top"/>
  <outline>
    <contour>
      <point x="118" y="0" type="curve"/>
      <point x="428" y="0" type="line"/>
      <point x="439" y="60"/>
      <point x="457" y="131"/>
      <point x="478" y="188" type="curve"/>
      <point x="539" y="358" type="line"/>
      <point x="555" y="358" type="line"/>
      <point x="547" y="188" type="line"/>
      <point x="544" y="129"/>
      <point x="536" y="60"/>
      <point x="525" y="0" type="curve"/>
      <point x="847" y="0" type="line"/>
      <point x="868" y="70"/>
      <point x="905" y="154"/>
      <point x="937" y="225" type="curve"/>
      <point x="1039" y="450" type="line"/>
      <point x="1074" y="528"/>
      <point x="1126" y="632"/>
      <point x="1179" y="713" type="curve"/>
      <point x="859" y="713" type="line"/>
      <point x="846" y="643"/>
      <point x="827" y="562"/>
      <point x="805" y="492" type="curve"/>
      <point x="742" y="292" type="line"/>
      <point x="726" y="292" type="line"/>
      <point x="740" y="490" type="line"/>
      <point x="745" y="561"/>
      <point x="754" y="643"/>
      <point x="769" y="713" type="curve"/>
      <point x="489" y="713" type="line"/>
      <point x="474" y="643"/>
      <point x="450" y="560"/>
      <point x="427" y="492" type="curve"/>
      <point x="359" y="292" type="line"/>
      <point x="343" y="292" type="line"/>
      <point x="363" y="490" type="line"/>
      <point x="370" y="561"/>
      <point x="384" y="644"/>
      <point x="401" y="713" type="curve"/>
      <point x="88" y="713" type="line"/>
      <point x="111" y="631"/>
      <point x="117" y="528"/>
      <point x="120" y="450" type="curve"/>
      <point x="126" y="225" type="line"/>
      <point x="128" y="155"/>
      <point x="126" y="72"/>
    </contour>
  </outline>
</glyph>
<glyph name="X" format="2">
  <advance width="758"/>
  <unicode hex="0058"/>
  <outline>
    <contour>
      <point x="-53" y="0" type="curve"/>
      <point x="278" y="0" type="line"/>
      <point x="287" y="44"/>
      <point x="303" y="84"/>
      <point x="320" y="118" type="curve"/>
      <point x="364" y="207" type="line"/>
      <point x="380" y="207" type="line"/>
      <point x="392" y="118" type="line"/>
      <point x="397" y="84"/>
      <point x="401" y="44"/>
      <point x="394" y="0" type="curve"/>
      <point x="708" y="0" type="line"/>
      <point x="667" y="70"/>
      <point x="640" y="139"/>
      <point x="615" y="220" type="curve"/>
      <point x="567" y="377" type="line"/>
      <point x="555" y="317" type="line"/>
      <point x="672" y="494" type="line"/>
      <point x="715" y="558"/>
      <point x="769" y="636"/>
      <point x="845" y="713" type="curve"/>
      <point x="513" y="713" type="line"/>
      <point x="499" y="664"/>
      <point x="483" y="618"/>
      <point x="464" y="580" type="curve"/>
      <point x="426" y="502" type="line"/>
      <point x="410" y="502" type="line"/>
      <point x="399" y="580" type="line"/>
      <point x="394" y="618"/>
      <point x="393" y="665"/>
      <point x="397" y="713" type="curve"/>
      <point x="94" y="713" type="line"/>
      <point x="138" y="635"/>
      <point x="158" y="564"/>
      <point x="177" y="494" type="curve"/>
      <point x="218" y="345" type="line"/>
      <point x="231" y="400" type="line"/>
      <point x="110" y="215" type="line"/>
      <point x="58" y="136"/>
      <point x="10" y="69"/>
    </contour>
  </outline>
</glyph>
<glyph name="bracketleft" format="2">
  <advance width="445"/>
  <unicode hex="005B"/>
  <outline>
    <contour>
      <point x="-41" y="-130" type="curve"/>
      <point x="194" y="-130" type="line"/>
      <point x="202" y="-90" type="line"/>
      <point x="205" y="-16"/>
      <point x="212" y="48"/>
      <point x="231" y="139" type="curve"/>
      <point x="308" y="504" type="line"/>
      <point x="328" y="599"/>
      <point x="348" y="666"/>
      <point x="377" y="743" type="curve"/>
      <point x="386" y="783" type="line"/>
      <point x="151" y="783" type="line"/>
      <point x="144" y="706"/>
      <point x="137" y="639"/>
      <point x="117" y="544" type="curve"/>
      <point x="23" y="99" type="line"/>
      <point x="4" y="8"/>
      <point x="-16" y="-56"/>
    </contour>
    <contour>
      <point x="149" y="-130" type="line"/>
      <point x="335" y="-130" type="line"/>
      <point x="374" y="56" type="line"/>
      <point x="330" y="46"/>
      <point x="283" y="43"/>
      <point x="232" y="43" type="curve"/>
      <point x="185" y="43" type="line"/>
    </contour>
    <contour>
      <point x="288" y="610" type="line"/>
      <point x="339" y="610" type="line"/>
      <point x="401" y="610"/>
      <point x="443" y="604"/>
      <point x="482" y="597" type="curve"/>
      <point x="522" y="783" type="line"/>
      <point x="325" y="783" type="line"/>
    </contour>
  </outline>
</glyph>
<glyph name="backslash" format="2">
  <advance width="485"/>
  <unicode hex="005C"/>
  <outline>
    <contour>
      <point x="208" y="0" type="curve"/>
      <point x="443" y="0" type="line"/>
      <point x="417" y="74"/>
      <point x="400" y="137"/>
      <point x="386" y="228" type="curve"/>
      <point x="346" y="476" type="line"/>
      <point x="331" y="570"/>
      <point x="323" y="636"/>
      <point x="326" y="713" type="curve"/>
      <point x="93" y="713" type="line"/>
      <point x="121" y="636"/>
      <point x="134" y="571"/>
      <point x="149" y="474" type="curve"/>
      <point x="188" y="228" type="line"/>
      <point x="203" y="137"/>
      <point x="211" y="74"/>
    </contour>
  </outline>
</glyph>
<glyph name="asciicircum" format="2">
  <advance width="658"/>
  <unicode hex="005E"/>
  <outline>
    <contour>
      <point x="466" y="339" type="curve"/>
      <point x="642" y="341" type="line"/>
      <point x="604" y="458"/>
      <point x="568" y="573"/>
      <point x="549" y="690" type="curve"/>
      <point x="254" y="690" type="line"/>
      <point x="201" y="576"/>
      <point x="127" y="457"/>
      <point x="55" y="343" type="curve"/>
      <point x="253" y="343" type="line"/>
      <point x="299" y="397"/>
      <point x="337" y="449"/>
      <point x="375" y="503" type="curve"/>
      <point x="390" y="503" type="line"/>
      <point x="413" y="448"/>
      <point x="435" y="394"/>
    </contour>
  </outline>
</glyph>
<glyph name="b" format="2">
  <advance width="598"/>
  <unicode hex="0062"/>
  <outline>
    <contour>
      <point x="353" y="-16" type="curve" smooth="yes"/>
      <point x="469" y="-16"/>
      <point x="545" y="91"/>
      <point x="575" y="232" type="curve" smooth="yes"/>
      <point x="607" y="384"/>
      <point x="565" y="518"/>
      <point x="435" y="518" type="curve" smooth="yes"/>
      <point x="398" y="518"/>
      <point x="356" y="499"/>
      <point x="321" y="456" type="curve"/>
      <point x="305" y="456" type="line"/>
      <point x="313" y="493" type="line"/>
      <point x="333" y="589"/>
      <point x="362" y="675"/>
      <point x="391" y="752" type="curve"/>
      <point x="106" y="732" type="line"/>
      <point x="115" y="649"/>
      <point x="107" y="572"/>
      <point x="91" y="493" type="curve"/>
      <point x="32" y="213" type="line"/>
      <point x="14" y="129"/>
      <point x="-5" y="69"/>
      <point x="-31" y="0" type="curve"/>
      <point x="159" y="0" type="line"/>
      <point x="198" y="57" type="line"/>
      <point x="211" y="57" type="line"/>
      <point x="242" y="8"/>
      <point x="303" y="-16"/>
    </contour>
    <contour>
      <point x="284" y="172" type="curve"/>
      <point x="269" y="174"/>
      <point x="256" y="180"/>
      <point x="250" y="190" type="curve"/>
      <point x="274" y="305" type="line"/>
      <point x="284" y="322"/>
      <point x="300" y="332"/>
      <point x="316" y="333" type="curve"/>
      <point x="347" y="330"/>
      <point x="359" y="287"/>
      <point x="351" y="248" type="curve" smooth="yes"/>
      <point x="342" y="205"/>
      <point x="318" y="176"/>
    </contour>
  </outline>
</glyph>
<glyph name="e" format="2">
  <advance width="526"/>
  <unicode hex="0065"/>
  <anchor x="221" y="0" name="bottom"/>
  <anchor x="397" y="0" name="ogonek"/>
  <anchor x="327" y="502" name="top"/>
  <outline>
    <contour>
      <point x="286" y="-16" type="curve" smooth="yes"/>
      <point x="343" y="-16"/>
      <point x="421" y="0"/>
      <point x="449" y="11" type="curve"/>
      <point x="478" y="196" type="line"/>
      <point x="415" y="173"/>
      <point x="361" y="163"/>
      <point x="338" y="163" type="curve" smooth="yes"/>
      <point x="262" y="163"/>
      <point x="212" y="181"/>
      <point x="225" y="252" type="curve"/>
      <point x="233" y="288" type="line"/>
      <point x="248" y="346"/>
      <point x="275" y="373"/>
      <point x="301" y="377" type="curve"/>
      <point x="328" y="373"/>
      <point x="336" y="338"/>
      <point x="325" y="299" type="curve" smooth="yes"/>
      <point x="323" y="292"/>
      <point x="320" y="282"/>
      <point x="317" y="273" type="curve"/>
      <point x="493" y="218" type="line"/>
      <point x="500" y="237"/>
      <point x="505" y="255"/>
      <point x="511" y="281" type="curve" smooth="yes"/>
      <point x="546" y="434"/>
      <point x="468" y="518"/>
      <point x="296" y="518" type="curve" smooth="yes"/>
      <point x="145" y="518"/>
      <point x="51" y="420"/>
      <point x="22" y="274" type="curve" smooth="yes"/>
      <point x="-14" y="92"/>
      <point x="93" y="-16"/>
    </contour>
    <contour>
      <point x="93" y="218" type="line"/>
      <point x="493" y="218" type="line"/>
      <point x="510" y="298" type="line"/>
      <point x="385" y="310" type="line"/>
      <point x="110" y="300" type="line"/>
    </contour>
  </outline>
</glyph>
<glyph name="g" format="2">
  <advance width="562"/>
  <unicode hex="0067"/>
  <anchor x="233" y="-192" name="bottom"/>
  <anchor x="306" y="502" name="top"/>
  <outline>
    <contour>
      <point x="190" y="-206" type="curve" smooth="yes"/>
      <point x="321" y="-206"/>
      <point x="458" y="-165"/>
      <point x="488" y="-26" type="curve" smooth="yes"/>
      <point x="513" y="91"/>
      <point x="427" y="146"/>
      <point x="322" y="146" type="curve" smooth="yes"/>
      <point x="282" y="146" type="line" smooth="yes"/>
      <point x="262" y="146"/>
      <point x="245" y="151"/>
      <point x="248" y="166" type="curve" smooth="yes"/>
      <point x="251" y="179"/>
      <point x="270" y="182"/>
      <point x="305" y="187" type="curve" smooth="yes"/>
      <point x="386" y="199"/>
      <point x="478" y="230"/>
      <point x="498" y="317" type="curve" smooth="yes"/>
      <point x="509" y="365"/>
      <point x="500" y="403"/>
      <point x="471" y="439" type="curve"/>
      <point x="413" y="374" type="line"/>
      <point x="465" y="371"/>
      <point x="512" y="361"/>
      <point x="565" y="335" type="curve"/>
      <point x="601" y="506" type="line"/>
      <point x="454" y="506" type="line" smooth="yes"/>
      <point x="382" y="506"/>
      <point x="353" y="518"/>
      <point x="258" y="518" type="curve" smooth="yes"/>
      <point x="122" y="518"/>
      <point x="59" y="449"/>
      <point x="43" y="370" type="curve" smooth="yes"/>
      <point x="28" y="297"/>
      <point x="58" y="233"/>
      <point x="122" y="193" type="curve"/>
      <point x="122" y="180" type="line"/>
      <point x="89" y="170"/>
      <point x="42" y="152"/>
      <point x="33" y="105" type="curve" smooth="yes"/>
      <point x="23" y="55"/>
      <point x="57" y="27"/>
      <point x="82" y="17" type="curve"/>
      <point x="82" y="4" type="line"/>
      <point x="40" y="-5"/>
      <point x="-23" y="-24"/>
      <point x="-33" y="-71" type="curve" smooth="yes"/>
      <point x="-56" y="-176"/>
      <point x="74" y="-206"/>
    </contour>
    <contour>
      <point x="215" y="-74" type="curve"/>
      <point x="163" y="-72"/>
      <point x="143" y="-58"/>
      <point x="146" y="-42" type="curve" smooth="yes"/>
      <point x="148" y="-29"/>
      <point x="176" y="-15"/>
      <point x="195" y="-14" type="curve"/>
      <point x="207" y="-14" type="line" smooth="yes"/>
      <point x="244" y="-14"/>
      <point x="286" y="-29"/>
      <point x="280" y="-48" type="curve" smooth="yes"/>
      <point x="277" y="-58"/>
      <point x="251" y="-70"/>
    </contour>
    <contour>
      <point x="261" y="280" type="curve"/>
      <point x="245" y="291"/>
      <point x="230" y="304"/>
      <point x="234" y="321" type="curve" smooth="yes"/>
      <point x="237" y="335"/>
      <point x="254" y="344"/>
      <point x="272" y="346" type="curve"/>
      <point x="303" y="342"/>
      <point x="321" y="327"/>
      <point x="317" y="311" type="curve" smooth="yes"/>
      <point x="312" y="291"/>
      <point x="278" y="281"/>
    </contour>
  </outline>
</glyph>
<glyph name="k" format="2">
  <advance width="617"/>
  <unicode hex="006B"/>
  <anchor x="251" y="0" name="bottom"/>
  <anchor x="405" y="733" name="top"/>
  <outline>
    <contour>
      <point x="294" y="0" type="curve"/>
      <point x="576" y="0" type="line"/>
      <point x="536" y="63"/>
      <point x="506" y="127"/>
      <point x="479" y="190" type="curve"/>
      <point x="422" y="321" type="line"/>
      <point x="454" y="226" type="line"/>
      <point x="522" y="317" type="line"/>
      <point x="569" y="379"/>
      <point x="616" y="440"/>
      <point x="671" y="502" type="curve"/>
      <point x="384" y="502" type="line"/>
      <point x="373" y="462"/>
      <point x="354" y="423"/>
      <point x="333" y="383" type="curve"/>
      <point x="298" y="318" type="line"/>
      <point x="260" y="318" type="line"/>
      <point x="230" y="176" type="line"/>
      <point x="270" y="176" type="line"/>
      <point x="284" y="108" type="line"/>
      <point x="292" y="72"/>
      <point x="297" y="36"/>
    </contour>
    <contour>
      <point x="-31" y="0" type="curve"/>
      <point x="227" y="0" type="line"/>
      <point x="229" y="57"/>
      <point x="233" y="107"/>
      <point x="244" y="166" type="curve"/>
      <point x="313" y="493" type="line"/>
      <point x="333" y="589"/>
      <point x="362" y="675"/>
      <point x="391" y="752" type="curve"/>
      <point x="106" y="732" type="line"/>
      <point x="115" y="649"/>
      <point x="107" y="572"/>
      <point x="91" y="493" type="curve"/>
      <point x="32" y="213" type="line"/>
      <point x="14" y="129"/>
      <point x="-5" y="69"/>
    </contour>
  </outline>
</glyph>
<glyph name="m" format="2">
  <advance width="891"/>
  <unicode hex="006D"/>
  <anchor x="395" y="0" name="bottom"/>
  <anchor x="501" y="502" name="top"/>
  <outline>
    <contour>
      <point x="-27" y="0" type="curve"/>
      <point x="231" y="0" type="line"/>
      <point x="234" y="69"/>
      <point x="240" y="129"/>
      <point x="255" y="200" type="curve"/>
      <point x="274" y="291" type="line"/>
      <point x="291" y="308"/>
      <point x="310" y="318"/>
      <point x="319" y="318" type="curve" smooth="yes"/>
      <point x="341" y="318"/>
      <point x="345" y="289"/>
      <point x="333" y="238" type="curve"/>
      <point x="326" y="200" type="line"/>
      <point x="311" y="129"/>
      <point x="293" y="69"/>
      <point x="269" y="0" type="curve"/>
      <point x="525" y="0" type="line"/>
      <point x="525" y="69"/>
      <point x="533" y="129"/>
      <point x="551" y="213" type="curve"/>
      <point x="559" y="252"/>
      <point x="574" y="297"/>
      <point x="580" y="326" type="curve" smooth="yes"/>
      <point x="587" y="358"/>
      <point x="588" y="387"/>
      <point x="584" y="412" type="curve"/>
      <point x="575" y="412" type="line"/>
      <point x="569" y="477"/>
      <point x="527" y="518"/>
      <point x="454" y="518" type="curve" smooth="yes"/>
      <point x="402" y="518"/>
      <point x="339" y="485"/>
      <point x="293" y="431" type="curve"/>
      <point x="276" y="431" type="line"/>
      <point x="281" y="512" type="line"/>
      <point x="63" y="502" type="line"/>
      <point x="71" y="419"/>
      <point x="63" y="342"/>
      <point x="47" y="263" type="curve"/>
      <point x="36" y="213" type="line"/>
      <point x="18" y="129"/>
      <point x="-1" y="69"/>
    </contour>
    <contour>
      <point x="562" y="0" type="curve"/>
      <point x="818" y="0" type="line"/>
      <point x="818" y="69"/>
      <point x="826" y="129"/>
      <point x="844" y="213" type="curve"/>
      <point x="852" y="252"/>
      <point x="867" y="297"/>
      <point x="873" y="326" type="curve" smooth="yes"/>
      <point x="897" y="440"/>
      <point x="850" y="518"/>
      <point x="747" y="518" type="curve" smooth="yes"/>
      <point x="695" y="518"/>
      <point x="633" y="485"/>
      <point x="587" y="431" type="curve"/>
      <point x="569" y="431" type="line"/>
      <point x="567" y="291" type="line"/>
      <point x="584" y="308"/>
      <point x="603" y="318"/>
      <point x="612" y="318" type="curve" smooth="yes"/>
      <point x="634" y="318"/>
      <point x="638" y="289"/>
      <point x="626" y="238" type="curve"/>
      <point x="619" y="200" type="line"/>
      <point x="604" y="129"/>
      <point x="586" y="69"/>
    </contour>
  </outline>
</glyph>
<glyph name="n" format="2">
  <advance width="602"/>
  <unicode hex="006E"/>
  <anchor x="246" y="0" name="bottom"/>
  <anchor x="352" y="502" name="top"/>
  <outline>
    <contour>
      <point x="-27" y="0" type="curve"/>
      <point x="231" y="0" type="line"/>
      <point x="234" y="69"/>
      <point x="240" y="129"/>
      <point x="255" y="200" type="curve"/>
      <point x="274" y="291" type="line"/>
      <point x="291" y="308"/>
      <point x="312" y="318"/>
      <point x="321" y="318" type="curve" smooth="yes"/>
      <point x="345" y="318"/>
      <point x="349" y="289"/>
      <point x="337" y="238" type="curve"/>
      <point x="330" y="200" type="line"/>
      <point x="315" y="129"/>
      <point x="297" y="69"/>
      <point x="273" y="0" type="curve"/>
      <point x="529" y="0" type="line"/>
      <point x="529" y="69"/>
      <point x="537" y="129"/>
      <point x="555" y="213" type="curve"/>
      <point x="563" y="252"/>
      <point x="578" y="297"/>
      <point x="584" y="326" type="curve" smooth="yes"/>
      <point x="608" y="440"/>
      <point x="561" y="518"/>
      <point x="456" y="518" type="curve" smooth="yes"/>
      <point x="402" y="518"/>
      <point x="340" y="485"/>
      <point x="293" y="431" type="curve"/>
      <point x="276" y="431" type="line"/>
      <point x="281" y="512" type="line"/>
      <point x="63" y="502" type="line"/>
      <point x="71" y="419"/>
      <point x="63" y="342"/>
      <point x="47" y="263" type="curve"/>
      <point x="36" y="213" type="line"/>
      <point x="18" y="129"/>
      <point x="-1" y="69"/>
    </contour>
  </outline>
</glyph>
<glyph name="q" format="2">
  <advance width="590"/>
  <unicode hex="0071"/>
  <outline>
    <contour>
      <point x="223" y="-198" type="curve"/>
      <point x="482" y="-192" type="line"/>
      <point x="485" y="-123"/>
      <point x="491" y="-63"/>
      <point x="509" y="21" type="curve"/>
      <point x="561" y="263" type="line"/>
      <point x="578" y="345"/>
      <point x="603" y="426"/>
      <point x="639" y="512" type="curve"/>
      <point x="419" y="502" type="line"/>
      <point x="398" y="440" type="line"/>
      <point x="382" y="440" type="line"/>
      <point x="352" y="493"/>
      <point x="294" y="518"/>
      <point x="246" y="518" type="curve" smooth="yes"/>
      <point x="130" y="518"/>
      <point x="54" y="411"/>
      <point x="24" y="270" type="curve" smooth="yes"/>
      <point x="-8" y="118"/>
      <point x="34" y="-16"/>
      <point x="164" y="-16" type="curve" smooth="yes"/>
      <point x="202" y="-16"/>
      <point x="242" y="2"/>
      <point x="278" y="45" type="curve"/>
      <point x="292" y="45" type="line"/>
      <point x="284" y="8" type="line" smooth="yes"/>
      <point x="269" y="-63"/>
      <point x="249" y="-129"/>
    </contour>
    <contour>
      <point x="283" y="169" type="curve"/>
      <point x="252" y="172"/>
      <point x="240" y="215"/>
      <point x="248" y="254" type="curve" smooth="yes"/>
      <point x="257" y="297"/>
      <point x="281" y="326"/>
      <point x="315" y="330" type="curve"/>
      <point x="330" y="328"/>
      <point x="343" y="322"/>
      <point x="349" y="312" type="curve"/>
      <point x="325" y="197" type="line"/>
      <point x="315" y="180"/>
      <point x="299" y="170"/>
    </contour>
  </outline>
</glyph>
<glyph name="r" format="2">
  <advance width="438"/>
  <unicode hex="0072"/>
  <anchor x="93" y="0" name="bottom"/>
  <anchor x="290" y="502" name="top"/>
  <outline>
    <contour>
      <point x="-27" y="0" type="curve"/>
      <point x="231" y="0" type="line"/>
      <point x="234" y="69"/>
      <point x="240" y="129"/>
      <point x="255" y="200" type="curve"/>
      <point x="269" y="262" type="line"/>
      <point x="287" y="281"/>
      <point x="327" y="295"/>
      <point x="343" y="295" type="curve" smooth="yes"/>
      <point x="360" y="295"/>
      <point x="380" y="289"/>
      <point x="414" y="278" type="curve"/>
      <point x="482" y="508" type="line"/>
      <point x="465" y="513"/>
      <point x="437" y="518"/>
      <point x="426" y="518" type="curve" smooth="yes"/>
      <point x="383" y="518"/>
      <point x="344" y="499"/>
      <point x="293" y="431" type="curve"/>
      <point x="276" y="431" type="line"/>
      <point x="281" y="512" type="line"/>
      <point x="63" y="502" type="line"/>
      <point x="71" y="419"/>
      <point x="63" y="342"/>
      <point x="47" y="263" type="curve"/>
      <point x="36" y="213" type="line"/>
      <point x="18" y="129"/>
      <point x="-1" y="69"/>
    </contour>
  </outline>
</glyph>
<glyph name="t" format="2">
  <advance width="436"/>
  <unicode hex="0074"/>
  <anchor x="179" y="0" name="bottom"/>
  <anchor x="224" y="251" name="center"/>
  <anchor x="305" y="680" name="top"/>
  <anchor x="360" y="502" name="topright"/>
  <outline>
    <contour>
      <point x="247" y="-16" type="curve" smooth="yes"/>
      <point x="284" y="-16"/>
      <point x="342" y="-5"/>
      <point x="365" y="4" type="curve"/>
      <point x="392" y="182" type="line"/>
      <point x="364" y="167"/>
      <point x="339" y="161"/>
      <point x="325" y="161" type="curve" smooth="yes"/>
      <point x="293" y="161"/>
      <point x="284" y="192"/>
      <point x="293" y="237" type="curve" smooth="yes"/>
      <point x="338" y="450" type="line"/>
      <point x="359" y="550"/>
      <point x="380" y="621"/>
      <point x="409" y="703" type="curve"/>
      <point x="146" y="663" type="line"/>
      <point x="142" y="594"/>
      <point x="136" y="534"/>
      <point x="119" y="450" type="curve"/>
      <point x="84" y="285"/>
      <point x="69" y="236"/>
      <point x="57" y="181" type="curve" smooth="yes"/>
      <point x="28" y="41"/>
      <point x="116" y="-16"/>
    </contour>
    <contour>
      <point x="27" y="321" type="line"/>
      <point x="164" y="343" type="line"/>
      <point x="266" y="343" type="line"/>
      <point x="319" y="341"/>
      <point x="376" y="334"/>
      <point x="432" y="321" type="curve"/>
      <point x="470" y="502" type="line"/>
      <point x="65" y="502" type="line"/>
    </contour>
  </outline>
</glyph>
<glyph name="u" format="2">
  <advance width="595"/>
  <unicode hex="0075"/>
  <anchor x="243" y="0" name="bottom"/>
  <anchor x="512" y="0" name="ogonek"/>
  <anchor x="348" y="502" name="top"/>
  <anchor x="628" y="502" name="topright"/>
  <outline>
    <contour>
      <point x="141" y="-16" type="curve" smooth="yes"/>
      <point x="195" y="-16"/>
      <point x="257" y="17"/>
      <point x="304" y="71" type="curve"/>
      <point x="321" y="71" type="line"/>
      <point x="316" y="0" type="line"/>
      <point x="518" y="0" type="line"/>
      <point x="521" y="69"/>
      <point x="526" y="129"/>
      <point x="544" y="213" type="curve"/>
      <point x="557" y="273" type="line"/>
      <point x="578" y="373"/>
      <point x="597" y="433"/>
      <point x="622" y="502" type="curve"/>
      <point x="367" y="502" type="line"/>
      <point x="364" y="433"/>
      <point x="356" y="373"/>
      <point x="341" y="302" type="curve"/>
      <point x="321" y="206" type="line"/>
      <point x="304" y="189"/>
      <point x="283" y="179"/>
      <point x="274" y="179" type="curve" smooth="yes"/>
      <point x="250" y="179"/>
      <point x="246" y="208"/>
      <point x="257" y="259" type="curve"/>
      <point x="266" y="302" type="line"/>
      <point x="280" y="373"/>
      <point x="300" y="439"/>
      <point x="325" y="508" type="curve"/>
      <point x="66" y="502" type="line"/>
      <point x="63" y="433"/>
      <point x="59" y="375"/>
      <point x="38" y="273" type="curve"/>
      <point x="30" y="234"/>
      <point x="21" y="205"/>
      <point x="15" y="176" type="curve" smooth="yes"/>
      <point x="-9" y="62"/>
      <point x="36" y="-16"/>
    </contour>
  </outline>
</glyph>
<glyph name="v" format="2">
  <advance width="583"/>
  <unicode hex="0076"/>
  <outline>
    <contour>
      <point x="113" y="0" type="curve"/>
      <point x="367" y="0" type="line"/>
      <point x="394" y="63"/>
      <point x="425" y="126"/>
      <point x="459" y="188" type="curve"/>
      <point x="508" y="278" type="line"/>
      <point x="549" y="353"/>
      <point x="591" y="428"/>
      <point x="641" y="502" type="curve"/>
      <point x="369" y="502" type="line"/>
      <point x="361" y="454"/>
      <point x="346" y="398"/>
      <point x="327" y="342" type="curve"/>
      <point x="292" y="238" type="line"/>
      <point x="276" y="238" type="line"/>
      <point x="281" y="342" type="line"/>
      <point x="284" y="398"/>
      <point x="291" y="455"/>
      <point x="301" y="508" type="curve"/>
      <point x="48" y="502" type="line"/>
      <point x="66" y="430"/>
      <point x="79" y="353"/>
      <point x="88" y="279" type="curve"/>
      <point x="100" y="190" type="line"/>
      <point x="108" y="127"/>
      <point x="113" y="63"/>
    </contour>
  </outline>
</glyph>
<glyph name="w" format="2">
  <advance width="865"/>
  <unicode hex="0077"/>
  <anchor x="374" y="0" name="bottom"/>
  <anchor x="479" y="502" name="top"/>
  <outline>
    <contour>
      <point x="88" y="0" type="curve"/>
      <point x="334" y="0" type="line"/>
      <point x="342" y="42"/>
      <point x="356" y="86"/>
      <point x="371" y="128" type="curve"/>
      <point x="400" y="209" type="line"/>
      <point x="414" y="209" type="line"/>
      <point x="411" y="133" type="line"/>
      <point x="409" y="89"/>
      <point x="406" y="42"/>
      <point x="397" y="0" type="curve"/>
      <point x="667" y="0" type="line"/>
      <point x="688" y="62"/>
      <point x="719" y="126"/>
      <point x="753" y="192" type="curve"/>
      <point x="798" y="279" type="line"/>
      <point x="837" y="355"/>
      <point x="875" y="427"/>
      <point x="925" y="502" type="curve"/>
      <point x="652" y="502" type="line"/>
      <point x="644" y="453"/>
      <point x="625" y="390"/>
      <point x="607" y="335" type="curve"/>
      <point x="572" y="227" type="line"/>
      <point x="557" y="227" type="line"/>
      <point x="564" y="333" type="line"/>
      <point x="568" y="389"/>
      <point x="574" y="448"/>
      <point x="586" y="502" type="curve"/>
      <point x="362" y="502" type="line"/>
      <point x="354" y="446"/>
      <point x="336" y="391"/>
      <point x="317" y="333" type="curve"/>
      <point x="282" y="227" type="line"/>
      <point x="267" y="227" type="line"/>
      <point x="274" y="333" type="line"/>
      <point x="278" y="389"/>
      <point x="284" y="452"/>
      <point x="296" y="508" type="curve"/>
      <point x="42" y="502" type="line"/>
      <point x="61" y="427"/>
      <point x="69" y="354"/>
      <point x="75" y="279" type="curve"/>
      <point x="82" y="191" type="line"/>
      <point x="87" y="127"/>
      <point x="91" y="63"/>
    </contour>
  </outline>
</glyph>
<glyph name="braceleft" format="2">
  <advance width="490"/>
  <unicode hex="007B"/>
  <outline>
    <contour>
      <point x="275" y="-130" type="curve" smooth="yes"/>
      <point x="380" y="-130" type="line"/>
      <point x="417" y="48" type="line"/>
      <point x="382" y="44"/>
      <point x="355" y="43"/>
      <point x="338" y="43" type="curve"/>
      <point x="305" y="47"/>
      <point x="298" y="73"/>
      <point x="304" y="110" type="curve" smooth="yes"/>
      <point x="316" y="183" type="line" smooth="yes"/>
      <point x="329" y="260"/>
      <point x="310" y="294"/>
      <point x="239" y="319" type="curve"/>
      <point x="242" y="334" type="line"/>
      <point x="323" y="365"/>
      <point x="359" y="410"/>
      <point x="380" y="490" type="curve" smooth="yes"/>
      <point x="397" y="553" type="line" smooth="yes"/>
      <point x="407" y="590"/>
      <point x="424" y="607"/>
      <point x="457" y="610" type="curve"/>
      <point x="474" y="610"/>
      <point x="500" y="609"/>
      <point x="529" y="605" type="curve"/>
      <point x="567" y="783" type="line"/>
      <point x="447" y="783" type="line" smooth="yes"/>
      <point x="313" y="783"/>
      <point x="224" y="732"/>
      <point x="199" y="612" type="curve"/>
      <point x="190" y="566"/>
      <point x="188" y="526"/>
      <point x="178" y="480" type="curve"/>
      <point x="168" y="430"/>
      <point x="139" y="403"/>
      <point x="98" y="403" type="curve" smooth="yes"/>
      <point x="52" y="403" type="line"/>
      <point x="20" y="250" type="line"/>
      <point x="66" y="250" type="line" smooth="yes"/>
      <point x="107" y="250"/>
      <point x="124" y="223"/>
      <point x="114" y="173" type="curve"/>
      <point x="107" y="141"/>
      <point x="95" y="109"/>
      <point x="88" y="77" type="curve"/>
      <point x="63" y="-43"/>
      <point x="141" y="-130"/>
    </contour>
  </outline>
</glyph>
<glyph name="asciitilde" format="2">
  <advance width="590"/>
  <unicode hex="007E"/>
  <outline>
    <contour>
      <point x="416" y="189" type="curve" smooth="yes"/>
      <point x="502" y="189"/>
      <point x="555" y="274"/>
      <point x="584" y="410" type="curve"/>
      <point x="459" y="410" type="line"/>
      <point x="447" y="392"/>
      <point x="438" y="380"/>
      <point x="420" y="377" type="curve"/>
      <point x="368" y="384"/>
      <point x="283" y="432"/>
      <point x="207" y="432" type="curve" smooth="yes"/>
      <point x="115" y="432"/>
      <point x="60" y="346"/>
      <point x="31" y="211" type="curve"/>
      <point x="156" y="211" type="line"/>
      <point x="168" y="229"/>
      <point x="180" y="241"/>
      <point x="200" y="244" type="curve"/>
      <point x="247" y="237"/>
      <point x="336" y="189"/>
    </contour>
  </outline>
</glyph>
<glyph name="cent" format="2">
  <advance width="474"/>
  <unicode hex="00A2"/>
  <outline>
    <contour>
      <point x="112" y="-137" type="curve"/>
      <point x="286" y="-137" type="line"/>
      <point x="295" y="-55"/>
      <point x="308" y="22"/>
      <point x="324" y="99" type="curve"/>
      <point x="174" y="99" type="line"/>
      <point x="158" y="23"/>
      <point x="138" y="-54"/>
    </contour>
    <contour>
      <point x="240" y="413" type="curve"/>
      <point x="391" y="413" type="line"/>
      <point x="405" y="482"/>
      <point x="424" y="552"/>
      <point x="448" y="628" type="curve"/>
      <point x="274" y="628" type="line"/>
      <point x="266" y="553"/>
      <point x="255" y="483"/>
    </contour>
    <contour>
      <point x="290" y="-13" type="curve" smooth="yes"/>
      <point x="326" y="-13"/>
      <point x="374" y="-2"/>
      <point x="401" y="6" type="curve"/>
      <point x="432" y="194" type="line"/>
      <point x="402" y="178"/>
      <point x="359" y="166"/>
      <point x="336" y="166" type="curve"/>
      <point x="274" y="168"/>
      <point x="232" y="201"/>
      <point x="247" y="265" type="curve" smooth="yes"/>
      <point x="258" y="310"/>
      <point x="286" y="328"/>
      <point x="327" y="333" type="curve"/>
      <point x="348" y="333"/>
      <point x="391" y="322"/>
      <point x="450" y="294" type="curve"/>
      <point x="503" y="482" type="line"/>
      <point x="460" y="496"/>
      <point x="388" y="517"/>
      <point x="326" y="517" type="curve" smooth="yes"/>
      <point x="154" y="517"/>
      <point x="54" y="425"/>
      <point x="24" y="284" type="curve" smooth="yes"/>
      <point x="-15" y="100"/>
      <point x="97" y="-13"/>
    </contour>
  </outline>
</glyph>
<glyph name="sterling" format="2">
  <advance width="623"/>
  <unicode hex="00A3"/>
  <outline>
    <contour>
      <point x="-18" y="0" type="line"/>
      <point x="540" y="0" type="line"/>
      <point x="587" y="221" type="line"/>
      <point x="506" y="202"/>
      <point x="438" y="200"/>
      <point x="322" y="200" type="curve"/>
      <point x="195" y="200" type="line"/>
      <point x="227" y="170" type="line"/>
      <point x="329" y="228"/>
      <point x="345" y="276"/>
      <point x="354" y="319" type="curve" smooth="yes"/>
      <point x="375" y="424" type="line" smooth="yes"/>
      <point x="387" y="482"/>
      <point x="423" y="509"/>
      <point x="472" y="513" type="curve"/>
      <point x="494" y="513"/>
      <point x="538" y="502"/>
      <point x="599" y="473" type="curve"/>
      <point x="662" y="674" type="line"/>
      <point x="609" y="687"/>
      <point x="521" y="706"/>
      <point x="445" y="706" type="curve" smooth="yes"/>
      <point x="272" y="706"/>
      <point x="171" y="614"/>
      <point x="138" y="453" type="curve" smooth="yes"/>
      <point x="126" y="395"/>
      <point x="117" y="311"/>
      <point x="102" y="239" type="curve"/>
      <point x="94" y="208"/>
      <point x="81" y="165"/>
      <point x="7" y="120" type="curve"/>
    </contour>
    <contour>
      <point x="48" y="274" type="line"/>
      <point x="124" y="281"/>
      <point x="196" y="282"/>
      <point x="258" y="282" type="curve"/>
      <point x="302" y="282" type="line"/>
      <point x="364" y="282"/>
      <point x="434" y="281"/>
      <point x="508" y="274" type="curve"/>
      <point x="543" y="440" type="line"/>
      <point x="467" y="433"/>
      <point x="395" y="432"/>
      <point x="333" y="432" type="curve"/>
      <point x="289" y="432" type="line"/>
      <point x="227" y="432"/>
      <point x="157" y="433"/>
      <point x="83" y="440" type="curve"/>
    </contour>
  </outline>
</glyph>
<glyph name="section" format="2">
  <advance width="617"/>
  <unicode hex="00A7"/>
  <outline>
    <contour>
      <point x="215" y="-136" type="curve" smooth="yes"/>
      <point x="378" y="-136"/>
      <point x="456" y="-70"/>
      <point x="476" y="24" type="curve" smooth="yes"/>
      <point x="500" y="135"/>
      <point x="454" y="185"/>
      <point x="329" y="236" type="curve" smooth="yes"/>
      <point x="263" y="263"/>
      <point x="253" y="281"/>
      <point x="258" y="303" type="curve" smooth="yes"/>
      <point x="264" y="330"/>
      <point x="294" y="346"/>
      <point x="323" y="350" type="curve"/>
      <point x="260" y="482" type="line"/>
      <point x="158" y="471"/>
      <point x="57" y="424"/>
      <point x="35" y="321" type="curve" smooth="yes"/>
      <point x="19" y="247"/>
      <point x="45" y="179"/>
      <point x="163" y="129" type="curve" smooth="yes"/>
      <point x="243" y="95"/>
      <point x="264" y="80"/>
      <point x="257" y="54" type="curve" smooth="yes"/>
      <point x="251" y="32"/>
      <point x="224" y="27"/>
      <point x="189" y="24" type="curve"/>
      <point x="148" y="24"/>
      <point x="63" y="56"/>
      <point x="3" y="96" type="curve"/>
      <point x="-45" y="-83" type="line"/>
      <point x="13" y="-103"/>
      <point x="101" y="-136"/>
    </contour>
    <contour>
      <point x="397" y="110" type="line"/>
      <point x="502" y="126"/>
      <point x="582" y="175"/>
      <point x="602" y="272" type="curve" smooth="yes"/>
      <point x="621" y="361"/>
      <point x="576" y="411"/>
      <point x="453" y="461" type="curve" smooth="yes"/>
      <point x="391" y="486"/>
      <point x="376" y="506"/>
      <point x="381" y="528" type="curve" smooth="yes"/>
      <point x="386" y="549"/>
      <point x="416" y="557"/>
      <point x="438" y="560" type="curve"/>
      <point x="469" y="560"/>
      <point x="530" y="540"/>
      <point x="599" y="498" type="curve"/>
      <point x="649" y="679" type="line"/>
      <point x="599" y="696"/>
      <point x="488" y="729"/>
      <point x="406" y="729" type="curve" smooth="yes"/>
      <point x="263" y="729"/>
      <point x="183" y="670"/>
      <point x="160" y="562" type="curve" smooth="yes"/>
      <point x="139" y="465"/>
      <point x="176" y="400"/>
      <point x="287" y="354" type="curve" smooth="yes"/>
      <point x="366" y="321"/>
      <point x="388" y="305"/>
      <point x="381" y="277" type="curve" smooth="yes"/>
      <point x="375" y="254"/>
      <point x="348" y="236"/>
      <point x="311" y="232" type="curve"/>
    </contour>
  </outline>
</glyph>
<glyph name="copyright" format="2">
  <advance width="787"/>
  <unicode hex="00A9"/>
  <outline>
    <contour>
      <point x="417" y="-16" type="curve" smooth="yes"/>
      <point x="658" y="-16"/>
      <point x="783" y="137"/>
      <point x="783" y="345" type="curve" smooth="yes"/>
      <point x="783" y="544"/>
      <point x="665" y="706"/>
      <point x="411" y="706" type="curve" smooth="yes"/>
      <point x="160" y="706"/>
      <point x="44" y="545"/>
      <point x="44" y="344" type="curve" smooth="yes"/>
      <point x="44" y="156"/>
      <point x="153" y="-16"/>
    </contour>
    <contour>
      <point x="427" y="155" type="curve" smooth="yes"/>
      <point x="467" y="155"/>
      <point x="511" y="164"/>
      <point x="540" y="169" type="curve"/>
      <point x="534" y="302" type="line"/>
      <point x="512" y="289"/>
      <point x="485" y="282"/>
      <point x="470" y="282" type="curve"/>
      <point x="423" y="283"/>
      <point x="392" y="305"/>
      <point x="392" y="347" type="curve" smooth="yes"/>
      <point x="392" y="380"/>
      <point x="412" y="399"/>
      <point x="438" y="402" type="curve"/>
      <point x="453" y="402"/>
      <point x="486" y="393"/>
      <point x="531" y="372" type="curve"/>
      <point x="542" y="509" type="line"/>
      <point x="511" y="519"/>
      <point x="466" y="533"/>
      <point x="418" y="533" type="curve" smooth="yes"/>
      <point x="292" y="533"/>
      <point x="231" y="452"/>
      <point x="231" y="342" type="curve" smooth="yes"/>
      <point x="231" y="232"/>
      <point x="303" y="155"/>
    </contour>
    <contour>
      <point x="416" y="97" type="curve"/>
      <point x="233" y="105"/>
      <point x="165" y="210"/>
      <point x="165" y="344" type="curve" smooth="yes"/>
      <point x="165" y="488"/>
      <point x="238" y="585"/>
      <point x="412" y="593" type="curve"/>
      <point x="588" y="585"/>
      <point x="662" y="487"/>
      <point x="662" y="345" type="curve" smooth="yes"/>
      <point x="662" y="198"/>
      <point x="583" y="105"/>
    </contour>
  </outline>
</glyph>
<glyph name="ordfeminine" format="2">
  <advance width="414"/>
  <unicode hex="00AA"/>
  <outline>
    <contour>
      <point x="158" y="326" type="curve" smooth="yes"/>
      <point x="202" y="326"/>
      <point x="236" y="355"/>
      <point x="261" y="392" type="curve"/>
      <point x="272" y="392" type="line"/>
      <point x="272" y="336" type="line"/>
      <point x="425" y="336" type="line"/>
      <point x="417" y="388"/>
      <point x="423" y="434"/>
      <point x="432" y="476" type="curve"/>
      <point x="436" y="495" type="line" smooth="yes"/>
      <point x="442" y="522"/>
      <point x="449" y="541"/>
      <point x="456" y="575" type="curve" smooth="yes"/>
      <point x="476" y="671"/>
      <point x="411" y="729"/>
      <point x="297" y="729" type="curve" smooth="yes"/>
      <point x="250" y="729"/>
      <point x="180" y="714"/>
      <point x="139" y="708" type="curve"/>
      <point x="115" y="569" type="line"/>
      <point x="165" y="586"/>
      <point x="234" y="599"/>
      <point x="248" y="599" type="curve" smooth="yes"/>
      <point x="292" y="599"/>
      <point x="310" y="582"/>
      <point x="306" y="567" type="curve"/>
      <point x="200" y="552" type="line" smooth="yes"/>
      <point x="145" y="544"/>
      <point x="84" y="525"/>
      <point x="68" y="450" type="curve" smooth="yes"/>
      <point x="53" y="378"/>
      <point x="92" y="326"/>
    </contour>
    <contour>
      <point x="246" y="447" type="curve" smooth="yes"/>
      <point x="231" y="447"/>
      <point x="217" y="458"/>
      <point x="221" y="478" type="curve" smooth="yes"/>
      <point x="225" y="496"/>
      <point x="241" y="502"/>
      <point x="256" y="506" type="curve" smooth="yes"/>
      <point x="278" y="512"/>
      <point x="288" y="517"/>
      <point x="295" y="525" type="curve"/>
      <point x="283" y="471" type="line"/>
      <point x="270" y="454"/>
      <point x="256" y="447"/>
    </contour>
  </outline>
</glyph>
<glyph name="logicalnot" format="2">
  <advance width="590"/>
  <unicode hex="00AC"/>
  <outline>
    <contour>
      <point x="302" y="44" type="curve"/>
      <point x="514" y="44" type="line"/>
      <point x="523" y="119"/>
      <point x="537" y="189"/>
      <point x="550" y="250" type="curve"/>
      <point x="584" y="412" type="line"/>
      <point x="508" y="405"/>
      <point x="437" y="404"/>
      <point x="375" y="404" type="curve"/>
      <point x="281" y="404" type="line"/>
      <point x="219" y="404"/>
      <point x="148" y="405"/>
      <point x="74" y="412" type="curve"/>
      <point x="30" y="206" type="line"/>
      <point x="107" y="213"/>
      <point x="178" y="214"/>
      <point x="240" y="214" type="curve"/>
      <point x="334" y="214" type="line"/>
      <point x="387" y="214"/>
      <point x="448" y="213"/>
      <point x="510" y="206" type="curve"/>
      <point x="375" y="350" type="line"/>
      <point x="354" y="251" type="line"/>
      <point x="341" y="190"/>
      <point x="325" y="119"/>
    </contour>
  </outline>
</glyph>
<glyph name="registered" format="2">
  <advance width="588"/>
  <unicode hex="00AE"/>
  <outline>
    <contour>
      <point x="347" y="225" type="curve" smooth="yes"/>
      <point x="524" y="225"/>
      <point x="613" y="337"/>
      <point x="613" y="488" type="curve" smooth="yes"/>
      <point x="613" y="631"/>
      <point x="531" y="749"/>
      <point x="341" y="749" type="curve" smooth="yes"/>
      <point x="155" y="749"/>
      <point x="75" y="632"/>
      <point x="75" y="487" type="curve" smooth="yes"/>
      <point x="75" y="352"/>
      <point x="151" y="225"/>
    </contour>
    <contour>
      <point x="223" y="354" type="curve"/>
      <point x="324" y="354" type="line"/>
      <point x="318" y="386"/>
      <point x="316" y="413"/>
      <point x="316" y="448" type="curve"/>
      <point x="316" y="540" type="line"/>
      <point x="316" y="571"/>
      <point x="318" y="596"/>
      <point x="323" y="625" type="curve"/>
      <point x="220" y="639" type="line"/>
      <point x="227" y="607"/>
      <point x="228" y="579"/>
      <point x="228" y="544" type="curve"/>
      <point x="228" y="448" type="line"/>
      <point x="228" y="413"/>
      <point x="227" y="386"/>
    </contour>
    <contour>
      <point x="346" y="284" type="curve"/>
      <point x="186" y="289"/>
      <point x="141" y="386"/>
      <point x="141" y="487" type="curve" smooth="yes"/>
      <point x="141" y="600"/>
      <point x="191" y="686"/>
      <point x="342" y="691" type="curve"/>
      <point x="495" y="686"/>
      <point x="547" y="597"/>
      <point x="547" y="488" type="curve" smooth="yes"/>
      <point x="547" y="372"/>
      <point x="487" y="289"/>
    </contour>
    <contour>
      <point x="377" y="354" type="curve"/>
      <point x="491" y="354" type="line"/>
      <point x="474" y="376"/>
      <point x="454" y="409"/>
      <point x="437" y="438" type="curve"/>
      <point x="403" y="496" type="line"/>
      <point x="367" y="468" type="line"/>
      <point x="440" y="468"/>
      <point x="464" y="507"/>
      <point x="464" y="556" type="curve" smooth="yes"/>
      <point x="464" y="615"/>
      <point x="425" y="642"/>
      <point x="346" y="642" type="curve"/>
      <point x="295" y="642"/>
      <point x="255" y="639"/>
      <point x="220" y="639" type="curve"/>
      <point x="288" y="572" type="line"/>
      <point x="342" y="572" type="line" smooth="yes"/>
      <point x="353" y="572"/>
      <point x="372" y="571"/>
      <point x="372" y="544" type="curve" smooth="yes"/>
      <point x="372" y="519"/>
      <point x="357" y="511"/>
      <point x="336" y="511" type="curve" smooth="yes"/>
      <point x="298" y="511" type="line"/>
      <point x="298" y="458" type="line"/>
      <point x="367" y="458" type="line"/>
      <point x="314" y="490" type="line"/>
      <point x="349" y="424" type="line"/>
      <point x="360" y="403"/>
      <point x="372" y="379"/>
    </contour>
  </outline>
</glyph>
<glyph name="ordmasculine" format="2">
  <advance width="464"/>
  <unicode hex="00BA"/>
  <outline>
    <contour>
      <point x="275" y="324" type="curve" smooth="yes"/>
      <point x="397" y="324"/>
      <point x="474" y="393"/>
      <point x="498" y="505" type="curve" smooth="yes"/>
      <point x="523" y="620"/>
      <point x="456" y="729"/>
      <point x="306" y="729" type="curve" smooth="yes"/>
      <point x="183" y="729"/>
      <point x="107" y="662"/>
      <point x="83" y="547" type="curve" smooth="yes"/>
      <point x="59" y="431"/>
      <point x="122" y="324"/>
    </contour>
    <contour>
      <point x="279" y="453" type="curve"/>
      <point x="250" y="457"/>
      <point x="236" y="492"/>
      <point x="244" y="532" type="curve" smooth="yes"/>
      <point x="252" y="573"/>
      <point x="275" y="597"/>
      <point x="303" y="600" type="curve"/>
      <point x="334" y="595"/>
      <point x="344" y="558"/>
      <point x="336" y="520" type="curve" smooth="yes"/>
      <point x="328" y="480"/>
      <point x="307" y="457"/>
    </contour>
  </outline>
</glyph>
<glyph name="AE" format="2">
  <advance width="1025"/>
  <unicode hex="00C6"/>
  <anchor x="538" y="0" name="bottom"/>
  <anchor x="688" y="713" name="top"/>
  <outline>
    <contour>
      <point x="-57" y="0" type="curve"/>
      <point x="239" y="0" type="line"/>
      <point x="262" y="68"/>
      <point x="295" y="145"/>
      <point x="332" y="214" type="curve"/>
      <point x="497" y="520" type="line"/>
      <point x="529" y="520" type="line"/>
      <point x="685" y="520" type="line"/>
      <point x="752" y="713" type="line"/>
      <point x="365" y="713" type="line"/>
      <point x="334" y="637"/>
      <point x="297" y="568"/>
      <point x="249" y="487" type="curve"/>
      <point x="103" y="241" type="line"/>
      <point x="58" y="165"/>
      <point x="-1" y="75"/>
    </contour>
    <contour>
      <point x="221" y="116" type="line"/>
      <point x="544" y="116" type="line"/>
      <point x="558" y="296" type="line"/>
      <point x="286" y="296" type="line"/>
    </contour>
    <contour>
      <point x="399" y="0" type="curve"/>
      <point x="677" y="0" type="line"/>
      <point x="686" y="40" type="line"/>
      <point x="688" y="114"/>
      <point x="696" y="178"/>
      <point x="715" y="269" type="curve"/>
      <point x="750" y="435" type="line"/>
      <point x="770" y="530"/>
      <point x="790" y="596"/>
      <point x="819" y="673" type="curve"/>
      <point x="827" y="713" type="line"/>
      <point x="549" y="713" type="line"/>
      <point x="545" y="636"/>
      <point x="538" y="568"/>
      <point x="518" y="474" type="curve"/>
      <point x="466" y="229" type="line"/>
      <point x="446" y="136"/>
      <point x="427" y="74"/>
    </contour>
    <contour>
      <point x="632" y="0" type="line"/>
      <point x="932" y="0" type="line"/>
      <point x="977" y="211" type="line"/>
      <point x="914" y="196"/>
      <point x="851" y="193"/>
      <point x="780" y="193" type="curve"/>
      <point x="673" y="193" type="line"/>
    </contour>
    <contour>
      <point x="658" y="271" type="line"/>
      <point x="780" y="271" type="line"/>
      <point x="859" y="271"/>
      <point x="913" y="269"/>
      <point x="969" y="260" type="curve"/>
      <point x="1010" y="455" type="line"/>
      <point x="953" y="445"/>
      <point x="898" y="443"/>
      <point x="816" y="443" type="curve"/>
      <point x="694" y="443" type="line"/>
    </contour>
    <contour>
      <point x="726" y="520" type="line"/>
      <point x="833" y="520" type="line"/>
      <point x="919" y="520"/>
      <point x="977" y="514"/>
      <point x="1031" y="502" type="curve"/>
      <point x="1075" y="713" type="line"/>
      <point x="766" y="713" type="line"/>
    </contour>
  </outline>
</glyph>
<glyph name="multiply" format="2">
  <advance width="598"/>
  <unicode hex="00D7"/>
  <outline>
    <contour>
      <point x="402" y="39" type="curve"/>
      <point x="558" y="175" type="line"/>
      <point x="510" y="223"/>
      <point x="465" y="275"/>
      <point x="429" y="318" type="curve"/>
      <point x="338" y="427" type="line"/>
      <point x="301" y="472"/>
      <point x="259" y="524"/>
      <point x="222" y="581" type="curve"/>
      <point x="65" y="443" type="line"/>
      <point x="114" y="393"/>
      <point x="157" y="345"/>
      <point x="193" y="302" type="curve"/>
      <point x="285" y="191" type="line"/>
      <point x="320" y="148"/>
      <point x="362" y="96"/>
    </contour>
    <contour>
      <point x="126" y="31" type="line"/>
      <point x="187" y="88"/>
      <point x="249" y="139"/>
      <point x="302" y="182" type="curve"/>
      <point x="436" y="288" type="line"/>
      <point x="489" y="330"/>
      <point x="557" y="378"/>
      <point x="623" y="424" type="curve"/>
      <point x="496" y="588" type="line"/>
      <point x="435" y="530"/>
      <point x="374" y="479"/>
      <point x="321" y="436" type="curve"/>
      <point x="187" y="330" type="line"/>
      <point x="134" y="287"/>
      <point x="69" y="240"/>
      <point x="0" y="194" type="curve"/>
    </contour>
  </outline>
</glyph>
<glyph name="Thorn" format="2">
  <advance width="678"/>
  <unicode hex="00DE"/>
  <outline>
    <contour>
      <point x="-21" y="0" type="curve"/>
      <point x="258" y="0" type="line"/>
      <point x="261" y="74"/>
      <point x="268" y="138"/>
      <point x="287" y="229" type="curve"/>
      <point x="339" y="474" type="line"/>
      <point x="359" y="569"/>
      <point x="379" y="636"/>
      <point x="408" y="713" type="curve"/>
      <point x="129" y="713" type="line"/>
      <point x="125" y="636"/>
      <point x="118" y="569"/>
      <point x="98" y="474" type="curve"/>
      <point x="46" y="229" type="line"/>
      <point x="27" y="138"/>
      <point x="7" y="74"/>
    </contour>
    <contour>
      <point x="387" y="119" type="curve"/>
      <point x="559" y="119"/>
      <point x="647" y="198"/>
      <point x="679" y="351" type="curve" smooth="yes"/>
      <point x="720" y="545"/>
      <point x="627" y="625"/>
      <point x="442" y="625" type="curve"/>
      <point x="399" y="625"/>
      <point x="363" y="622"/>
      <point x="340" y="622" type="curve"/>
      <point x="301" y="437" type="line"/>
      <point x="391" y="437" type="line" smooth="yes"/>
      <point x="424" y="437"/>
      <point x="441" y="407"/>
      <point x="431" y="360" type="curve" smooth="yes"/>
      <point x="421" y="312"/>
      <point x="403" y="294"/>
      <point x="363" y="294" type="curve" smooth="yes"/>
      <point x="271" y="294" type="line"/>
      <point x="235" y="122" type="line"/>
      <point x="274" y="122"/>
      <point x="338" y="119"/>
    </contour>
  </outline>
</glyph>
<glyph name="germandbls" format="2">
  <advance width="620"/>
  <unicode hex="00DF"/>
  <outline>
    <contour>
      <point x="344" y="-6" type="curve" smooth="yes"/>
      <point x="476" y="-6"/>
      <point x="562" y="64"/>
      <point x="587" y="191" type="curve" smooth="yes"/>
      <point x="605" y="283"/>
      <point x="579" y="356"/>
      <point x="519" y="390" type="curve"/>
      <point x="523" y="405" type="line"/>
      <point x="576" y="428"/>
      <point x="614" y="470"/>
      <point x="629" y="541" type="curve" smooth="yes"/>
      <point x="654" y="660"/>
      <point x="566" y="749"/>
      <point x="411" y="749" type="curve" smooth="yes"/>
      <point x="242" y="749"/>
      <point x="151" y="675"/>
      <point x="119" y="523" type="curve" smooth="yes"/>
      <point x="101" y="436"/>
      <point x="83" y="350"/>
      <point x="65" y="263" type="curve"/>
      <point x="54" y="213" type="line"/>
      <point x="36" y="129"/>
      <point x="17" y="69"/>
      <point x="-9" y="0" type="curve"/>
      <point x="249" y="0" type="line"/>
      <point x="252" y="69"/>
      <point x="258" y="129"/>
      <point x="276" y="213" type="curve"/>
      <point x="340" y="518" type="line" smooth="yes"/>
      <point x="347" y="549"/>
      <point x="366" y="567"/>
      <point x="384" y="570" type="curve"/>
      <point x="415" y="568"/>
      <point x="426" y="536"/>
      <point x="418" y="501" type="curve" smooth="yes"/>
      <point x="411" y="469"/>
      <point x="389" y="443"/>
      <point x="362" y="439" type="curve"/>
      <point x="328" y="280" type="line"/>
      <point x="358" y="277"/>
      <point x="371" y="244"/>
      <point x="364" y="207" type="curve" smooth="yes"/>
      <point x="359" y="182"/>
      <point x="344" y="156"/>
      <point x="307" y="151" type="curve"/>
      <point x="305" y="151"/>
      <point x="304" y="151"/>
      <point x="302" y="151" type="curve"/>
      <point x="270" y="0" type="line"/>
      <point x="288" y="-4"/>
      <point x="324" y="-6"/>
    </contour>
    <contour>
      <point x="27" y="321" type="line"/>
      <point x="143" y="339" type="line"/>
      <point x="178" y="502" type="line"/>
      <point x="65" y="502" type="line"/>
    </contour>
  </outline>
</glyph>
<glyph name="divide" format="2">
  <advance width="590"/>
  <unicode hex="00F7"/>
  <outline>
    <contour>
      <point x="30" y="206" type="line"/>
      <point x="107" y="213"/>
      <point x="178" y="214"/>
      <point x="240" y="214" type="curve"/>
      <point x="334" y="214" type="line"/>
      <point x="396" y="214"/>
      <point x="467" y="213"/>
      <point x="540" y="206" type="curve"/>
      <point x="584" y="412" type="line"/>
      <point x="508" y="405"/>
      <point x="437" y="404"/>
      <point x="375" y="404" type="curve"/>
      <point x="281" y="404" type="line"/>
      <point x="219" y="404"/>
      <point x="148" y="405"/>
      <point x="74" y="412" type="curve"/>
    </contour>
    <contour>
      <point x="250" y="-6" type="curve" smooth="yes"/>
      <point x="315" y="-6"/>
      <point x="348" y="25"/>
      <point x="360" y="84" type="curve" smooth="yes"/>
      <point x="371" y="138"/>
      <point x="341" y="191"/>
      <point x="266" y="191" type="curve" smooth="yes"/>
      <point x="193" y="191"/>
      <point x="168" y="161"/>
      <point x="158" y="114" type="curve" smooth="yes"/>
      <point x="144" y="50"/>
      <point x="178" y="-6"/>
    </contour>
    <contour>
      <point x="342" y="427" type="curve" smooth="yes"/>
      <point x="407" y="427"/>
      <point x="440" y="458"/>
      <point x="452" y="517" type="curve" smooth="yes"/>
      <point x="463" y="571"/>
      <point x="433" y="624"/>
      <point x="358" y="624" type="curve" smooth="yes"/>
      <point x="285" y="624"/>
      <point x="260" y="594"/>
      <point x="250" y="547" type="curve" smooth="yes"/>
      <point x="236" y="483"/>
      <point x="270" y="427"/>
    </contour>
  </outline>
</glyph>
<glyph name="hbar" format="2">
  <advance width="598"/>
  <unicode hex="0127"/>
  <outline>
    <contour>
      <point x="46" y="540" type="line"/>
      <point x="110" y="548"/>
      <point x="171" y="550"/>
      <point x="224" y="550" type="curve"/>
      <point x="272" y="550" type="line"/>
      <point x="325" y="550"/>
      <point x="384" y="548"/>
      <point x="446" y="540" type="curve"/>
      <point x="480" y="701" type="line"/>
      <point x="415" y="694"/>
      <point x="354" y="691"/>
      <point x="301" y="691" type="curve"/>
      <point x="253" y="691" type="line"/>
      <point x="200" y="691"/>
      <point x="140" y="691"/>
      <point x="77" y="691" type="curve"/>
    </contour>
    <contour>
      <point x="-31" y="0" type="curve"/>
      <point x="227" y="0" type="line"/>
      <point x="230" y="69"/>
      <point x="236" y="129"/>
      <point x="251" y="200" type="curve"/>
      <point x="270" y="291" type="line"/>
      <point x="287" y="308"/>
      <point x="308" y="318"/>
      <point x="317" y="318" type="curve" smooth="yes"/>
      <point x="341" y="318"/>
      <point x="345" y="289"/>
      <point x="333" y="238" type="curve"/>
      <point x="326" y="200" type="line"/>
      <point x="311" y="129"/>
      <point x="293" y="69"/>
      <point x="269" y="0" type="curve"/>
      <point x="525" y="0" type="line"/>
      <point x="525" y="69"/>
      <point x="533" y="129"/>
      <point x="551" y="213" type="curve"/>
      <point x="559" y="252"/>
      <point x="574" y="297"/>
      <point x="580" y="326" type="curve" smooth="yes"/>
      <point x="604" y="440"/>
      <point x="557" y="518"/>
      <point x="452" y="518" type="curve" smooth="yes"/>
      <point x="408" y="518"/>
      <point x="357" y="491"/>
      <point x="320" y="447" type="curve"/>
      <point x="303" y="447" type="line"/>
      <point x="313" y="493" type="line"/>
      <point x="333" y="589"/>
      <point x="362" y="675"/>
      <point x="391" y="752" type="curve"/>
      <point x="142" y="734" type="line"/>
      <point x="124" y="649"/>
      <point x="108" y="572"/>
      <point x="91" y="493" type="curve"/>
      <point x="32" y="213" type="line"/>
      <point x="14" y="129"/>
      <point x="-5" y="69"/>
    </contour>
  </outline>
</glyph>
<glyph name="idotless" format="2">
  <advance width="304"/>
  <unicode hex="0131"/>
  <anchor x="99" y="0" name="bottom"/>
  <anchor x="222" y="0" name="ogonek"/>
  <anchor x="205" y="502" name="top"/>
  <outline>
    <contour>
      <point x="-30" y="0" type="curve"/>
      <point x="228" y="0" type="line"/>
      <point x="231" y="69"/>
      <point x="237" y="129"/>
      <point x="255" y="213" type="curve"/>
      <point x="266" y="263" type="line"/>
      <point x="289" y="373"/>
      <point x="309" y="433"/>
      <point x="336" y="502" type="curve"/>
      <point x="74" y="502" type="line"/>
      <point x="71" y="433"/>
      <point x="67" y="373"/>
      <point x="44" y="263" type="curve"/>
      <point x="33" y="213" type="line"/>
      <point x="15" y="129"/>
      <point x="-4" y="69"/>
    </contour>
  </outline>
</glyph>
<glyph name="lslash" format="2">
  <advance width="412"/>
  <unicode hex="0142"/>
  <outline>
    <contour>
      <point x="22" y="220" type="line"/>
      <point x="89" y="246"/>
      <point x="150" y="266"/>
      <point x="208" y="282" type="curve"/>
      <point x="259" y="296" type="line"/>
      <point x="316" y="312"/>
      <point x="383" y="328"/>
      <point x="450" y="339" type="curve"/>
      <point x="436" y="502" type="line"/>
      <point x="369" y="476"/>
      <point x="304" y="455"/>
      <point x="247" y="439" type="curve"/>
      <point x="196" y="425" type="line"/>
      <point x="137" y="409"/>
      <point x="76" y="395"/>
      <point x="8" y="383" type="curve"/>
    </contour>
    <contour>
      <point x="29" y="0" type="curve"/>
      <point x="287" y="0" type="line"/>
      <point x="290" y="69"/>
      <point x="296" y="129"/>
      <point x="314" y="213" type="curve"/>
      <point x="373" y="493" type="line"/>
      <point x="393" y="589"/>
      <point x="422" y="675"/>
      <point x="451" y="752" type="curve"/>
      <point x="166" y="732" type="line"/>
      <point x="175" y="649"/>
      <point x="167" y="572"/>
      <point x="151" y="493" type="curve"/>
      <point x="92" y="213" type="line"/>
      <point x="74" y="129"/>
      <point x="55" y="69"/>
    </contour>
  </outline>
</glyph>
<glyph name="Eng" format="2">
  <advance width="756"/>
  <unicode hex="014A"/>
  <outline>
    <contour>
      <point x="296" y="-192" type="curve"/>
      <point x="536" y="-192" type="line"/>
      <point x="584" y="-145"/>
      <point x="652" y="-73"/>
      <point x="675" y="39" type="curve" smooth="yes"/>
      <point x="694" y="130"/>
      <point x="700" y="227"/>
      <point x="721" y="327" type="curve"/>
      <point x="752" y="474" type="line"/>
      <point x="772" y="569"/>
      <point x="792" y="636"/>
      <point x="821" y="713" type="curve"/>
      <point x="554" y="713" type="line"/>
      <point x="550" y="636"/>
      <point x="543" y="569"/>
      <point x="523" y="474" type="curve"/>
      <point x="505" y="389" type="line"/>
      <point x="488" y="389" type="line"/>
      <point x="440" y="512" type="line"/>
      <point x="417" y="570"/>
      <point x="400" y="634"/>
      <point x="387" y="713" type="curve"/>
      <point x="129" y="713" type="line"/>
      <point x="125" y="636"/>
      <point x="118" y="569"/>
      <point x="98" y="474" type="curve"/>
      <point x="46" y="229" type="line"/>
      <point x="27" y="138"/>
      <point x="7" y="74"/>
      <point x="-21" y="0" type="curve"/>
      <point x="246" y="0" type="line"/>
      <point x="249" y="74"/>
      <point x="256" y="138"/>
      <point x="275" y="229" type="curve"/>
      <point x="295" y="324" type="line"/>
      <point x="311" y="324" type="line"/>
      <point x="362" y="200" type="line"/>
      <point x="391" y="129"/>
      <point x="412" y="68"/>
      <point x="421" y="0" type="curve"/>
      <point x="483" y="0" type="line"/>
      <point x="429" y="108" type="line"/>
      <point x="417" y="51" type="line"/>
      <point x="399" y="-34"/>
      <point x="359" y="-117"/>
    </contour>
  </outline>
</glyph>
<glyph name="OE" format="2">
  <advance width="1055"/>
  <unicode hex="0152"/>
  <anchor x="489.648" y="0" name="bottom"/>
  <anchor x="641.201" y="713" name="top"/>
  <outline>
    <contour>
      <point x="431" y="0" type="curve"/>
      <point x="707" y="0" type="line"/>
      <point x="716" y="40" type="line"/>
      <point x="718" y="114"/>
      <point x="726" y="178"/>
      <point x="745" y="269" type="curve"/>
      <point x="779" y="434" type="line"/>
      <point x="799" y="529"/>
      <point x="820" y="596"/>
      <point x="849" y="673" type="curve"/>
      <point x="857" y="713" type="line"/>
      <point x="581" y="713" type="line"/>
      <point x="577" y="636"/>
      <point x="570" y="569"/>
      <point x="550" y="474" type="curve"/>
      <point x="498" y="229" type="line"/>
      <point x="479" y="138"/>
      <point x="459" y="74"/>
    </contour>
    <contour>
      <point x="662" y="0" type="line"/>
      <point x="962" y="0" type="line"/>
      <point x="1007" y="211" type="line"/>
      <point x="944" y="196"/>
      <point x="881" y="193"/>
      <point x="810" y="193" type="curve"/>
      <point x="703" y="193" type="line"/>
    </contour>
    <contour>
      <point x="688" y="271" type="line"/>
      <point x="810" y="271" type="line"/>
      <point x="889" y="271"/>
      <point x="943" y="269"/>
      <point x="999" y="260" type="curve"/>
      <point x="1040" y="455" type="line"/>
      <point x="983" y="445"/>
      <point x="928" y="443"/>
      <point x="846" y="443" type="curve"/>
      <point x="724" y="443" type="line"/>
    </contour>
    <contour>
      <point x="756" y="520" type="line"/>
      <point x="863" y="520" type="line"/>
      <point x="949" y="520"/>
      <point x="1007" y="514"/>
      <point x="1061" y="502" type="curve"/>
      <point x="1105" y="713" type="line"/>
      <point x="796" y="713" type="line"/>
    </contour>
    <contour>
      <point x="386" y="-16" type="curve" smooth="yes"/>
      <point x="450" y="-16"/>
      <point x="537" y="-5"/>
      <point x="592" y="18" type="curve"/>
      <point x="630" y="248" type="line"/>
      <point x="557" y="204"/>
      <point x="488" y="186"/>
      <point x="436" y="182" type="curve"/>
      <point x="318" y="188"/>
      <point x="284" y="280"/>
      <point x="303" y="371" type="curve" smooth="yes"/>
      <point x="327" y="487"/>
      <point x="404" y="517"/>
      <point x="477" y="524" type="curve"/>
      <point x="542" y="520"/>
      <point x="602" y="497"/>
      <point x="670" y="453" type="curve"/>
      <point x="733" y="667" type="line"/>
      <point x="666" y="705"/>
      <point x="563" y="729"/>
      <point x="480" y="729" type="curve" smooth="yes"/>
      <point x="233" y="729"/>
      <point x="99" y="616"/>
      <point x="55" y="403" type="curve" smooth="yes"/>
      <point x="8" y="174"/>
      <point x="128" y="-16"/>
    </contour>
  </outline>
</glyph>
<glyph name="tbar" format="2">
  <advance width="436"/>
  <unicode hex="0167"/>
  <outline>
    <contour>
      <point x="14" y="174" type="line"/>
      <point x="74" y="184"/>
      <point x="130" y="184"/>
      <point x="179" y="184" type="curve"/>
      <point x="223" y="184" type="line"/>
      <point x="272" y="184"/>
      <point x="328" y="184"/>
      <point x="384" y="174" type="curve"/>
      <point x="413" y="315" type="line"/>
      <point x="355" y="315"/>
      <point x="299" y="315"/>
      <point x="250" y="315" type="curve"/>
      <point x="206" y="315" type="line"/>
      <point x="157" y="315"/>
      <point x="101" y="315"/>
      <point x="43" y="315" type="curve"/>
    </contour>
    <contour>
      <point x="247" y="-16" type="curve" smooth="yes"/>
      <point x="284" y="-16"/>
      <point x="342" y="-5"/>
      <point x="365" y="4" type="curve"/>
      <point x="388" y="162" type="line"/>
      <point x="360" y="147"/>
      <point x="335" y="141"/>
      <point x="321" y="141" type="curve" smooth="yes"/>
      <point x="289" y="141"/>
      <point x="280" y="172"/>
      <point x="289" y="217" type="curve" smooth="yes"/>
      <point x="338" y="450" type="line"/>
      <point x="359" y="550"/>
      <point x="380" y="621"/>
      <point x="409" y="703" type="curve"/>
      <point x="146" y="663" type="line"/>
      <point x="142" y="594"/>
      <point x="136" y="534"/>
      <point x="119" y="450" type="curve"/>
      <point x="84" y="285"/>
      <point x="69" y="236"/>
      <point x="57" y="181" type="curve" smooth="yes"/>
      <point x="28" y="41"/>
      <point x="116" y="-16"/>
    </contour>
    <contour>
      <point x="29" y="331" type="line"/>
      <point x="164" y="343" type="line"/>
      <point x="266" y="343" type="line"/>
      <point x="319" y="343"/>
      <point x="378" y="339"/>
      <point x="434" y="330" type="curve"/>
      <point x="470" y="502" type="line"/>
      <point x="65" y="502" type="line"/>
    </contour>
  </outline>
</glyph>
<glyph name="Schwa" format="2">
  <advance width="773"/>
  <unicode hex="018F"/>
  <outline>
    <contour>
      <point x="367" y="-16" type="curve" smooth="yes"/>
      <point x="587" y="-16"/>
      <point x="724" y="125"/>
      <point x="762" y="311" type="curve" smooth="yes"/>
      <point x="810" y="544"/>
      <point x="694" y="729"/>
      <point x="427" y="729" type="curve" smooth="yes"/>
      <point x="343" y="729"/>
      <point x="225" y="703"/>
      <point x="161" y="686" type="curve"/>
      <point x="140" y="463" type="line"/>
      <point x="217" y="504"/>
      <point x="319" y="530"/>
      <point x="385" y="531" type="curve"/>
      <point x="498" y="524"/>
      <point x="531" y="467"/>
      <point x="533" y="410" type="curve"/>
      <point x="522" y="336" type="line"/>
      <point x="500" y="227"/>
      <point x="447" y="193"/>
      <point x="369" y="182" type="curve"/>
      <point x="286" y="189"/>
      <point x="244" y="235"/>
      <point x="267" y="307" type="curve"/>
      <point x="238" y="272" type="line"/>
      <point x="549" y="272" type="line"/>
      <point x="583" y="434" type="line"/>
      <point x="69" y="434" type="line"/>
      <point x="45" y="348" type="line"/>
      <point x="9" y="165"/>
      <point x="85" y="-16"/>
    </contour>
  </outline>
</glyph>
<glyph name="florin" format="2">
  <advance width="560"/>
  <unicode hex="0192"/>
  <outline>
    <contour>
      <point x="70" y="-145" type="curve" smooth="yes"/>
      <point x="179" y="-145"/>
      <point x="298" y="-109"/>
      <point x="337" y="60" type="curve" smooth="yes"/>
      <point x="366" y="189"/>
      <point x="384" y="295"/>
      <point x="411" y="414" type="curve"/>
      <point x="423" y="433" type="line"/>
      <point x="406" y="439"/>
      <point x="396" y="462"/>
      <point x="400" y="482" type="curve" smooth="yes"/>
      <point x="408" y="521"/>
      <point x="437" y="527"/>
      <point x="465" y="527" type="curve" smooth="yes"/>
      <point x="478" y="527"/>
      <point x="515" y="519"/>
      <point x="546" y="508" type="curve"/>
      <point x="601" y="689" type="line"/>
      <point x="561" y="697"/>
      <point x="501" y="706"/>
      <point x="474" y="706" type="curve" smooth="yes"/>
      <point x="361" y="706"/>
      <point x="235" y="669"/>
      <point x="198" y="504" type="curve" smooth="yes"/>
      <point x="164" y="351"/>
      <point x="142" y="210"/>
      <point x="111" y="70" type="curve" smooth="yes"/>
      <point x="103" y="39"/>
      <point x="88" y="34"/>
      <point x="69" y="34" type="curve" smooth="yes"/>
      <point x="58" y="34"/>
      <point x="25" y="42"/>
      <point x="-2" y="53" type="curve"/>
      <point x="-57" y="-128" type="line"/>
      <point x="-17" y="-136"/>
      <point x="43" y="-145"/>
    </contour>
    <contour>
      <point x="62" y="275" type="line"/>
      <point x="139" y="282"/>
      <point x="210" y="283"/>
      <point x="272" y="283" type="curve"/>
      <point x="316" y="283" type="line"/>
      <point x="378" y="283"/>
      <point x="449" y="282"/>
      <point x="522" y="275" type="curve"/>
      <point x="557" y="441" type="line"/>
      <point x="481" y="434"/>
      <point x="410" y="433"/>
      <point x="348" y="433" type="curve"/>
      <point x="304" y="433" type="line"/>
      <point x="242" y="433"/>
      <point x="171" y="434"/>
      <point x="97" y="441" type="curve"/>
    </contour>
  </outline>
</glyph>
<glyph name="verticallinemod" format="2">
  <advance width="230"/>
  <unicode hex="02C8"/>
  <outline>
    <contour>
      <point x="83" y="502" type="curve"/>
      <point x="253" y="502" type="line"/>
      <point x="274" y="598"/>
      <point x="294" y="687"/>
      <point x="327" y="779" type="curve"/>
      <point x="127" y="779" type="line"/>
      <point x="122" y="687"/>
      <point x="104" y="598"/>
    </contour>
  </outline>
</glyph>
<glyph name="circumflexcomb" format="2">
  <unicode hex="0302"/>
  <anchor x="353" y="502" name="_top"/>
  <anchor x="406" y="755" name="top"/>
  <outline>
    <contour>
      <point x="446" y="553" type="curve"/>
      <point x="586" y="555" type="line"/>
      <point x="560" y="628"/>
      <point x="542" y="701"/>
      <point x="528" y="774" type="curve"/>
      <point x="307" y="774" type="line"/>
      <point x="341" y="697"/>
      <point x="390" y="623"/>
    </contour>
    <contour>
      <point x="142" y="554" type="curve"/>
      <point x="293" y="554" type="line"/>
      <point x="367" y="622"/>
      <point x="441" y="698"/>
      <point x="499" y="774" type="curve"/>
      <point x="278" y="774" type="line"/>
      <point x="237" y="701"/>
      <point x="193" y="628"/>
    </contour>
  </outline>
</glyph>
<glyph name="macroncomb" format="2">
  <unicode hex="0304"/>
  <anchor x="353" y="502" name="_top"/>
  <anchor x="398" y="717" name="top"/>
  <outline>
    <contour>
      <point x="178" y="555" type="line"/>
      <point x="235" y="561"/>
      <point x="298" y="563"/>
      <point x="366" y="563" type="curve"/>
      <point x="434" y="563"/>
      <point x="495" y="561"/>
      <point x="550" y="555" type="curve"/>
      <point x="587" y="731" type="line"/>
      <point x="530" y="725"/>
      <point x="467" y="723"/>
      <point x="399" y="723" type="curve"/>
      <point x="331" y="723"/>
      <point x="270" y="725"/>
      <point x="215" y="731" type="curve"/>
    </contour>
  </outline>
</glyph>
<glyph name="dotaccentcomb" format="2">
  <unicode hex="0307"/>
  <anchor x="193" y="502" name="_top"/>
  <anchor x="240" y="721" name="top"/>
  <outline>
    <contour>
      <point x="202" y="538" type="curve" smooth="yes"/>
      <point x="288" y="538"/>
      <point x="328" y="557"/>
      <point x="346" y="634" type="curve" smooth="yes"/>
      <point x="362" y="702"/>
      <point x="331" y="753"/>
      <point x="246" y="753" type="curve" smooth="yes"/>
      <point x="160" y="753"/>
      <point x="117" y="729"/>
      <point x="102" y="665" type="curve" smooth="yes"/>
      <point x="82" y="578"/>
      <point x="116" y="538"/>
    </contour>
  </outline>
</glyph>
<glyph name="dieresiscomb" format="2">
  <unicode hex="0308"/>
  <anchor x="352" y="502" name="_top"/>
  <anchor x="394" y="710" name="top"/>
  <outline>
    <contour>
      <point x="490" y="538" type="curve" smooth="yes"/>
      <point x="547" y="538"/>
      <point x="591" y="555"/>
      <point x="608" y="638" type="curve" smooth="yes"/>
      <point x="619" y="691"/>
      <point x="592" y="743"/>
      <point x="518" y="743" type="curve" smooth="yes"/>
      <point x="451" y="743"/>
      <point x="413" y="715"/>
      <point x="402" y="660" type="curve" smooth="yes"/>
      <point x="386" y="579"/>
      <point x="428" y="538"/>
    </contour>
    <contour>
      <point x="246" y="538" type="curve" smooth="yes"/>
      <point x="303" y="538"/>
      <point x="348" y="555"/>
      <point x="364" y="638" type="curve" smooth="yes"/>
      <point x="374" y="691"/>
      <point x="348" y="743"/>
      <point x="274" y="743" type="curve" smooth="yes"/>
      <point x="207" y="743"/>
      <point x="169" y="715"/>
      <point x="158" y="660" type="curve" smooth="yes"/>
      <point x="141" y="579"/>
      <point x="184" y="538"/>
    </contour>
  </outline>
</glyph>
<glyph name="hungarumlautcomb" format="2">
  <unicode hex="030B"/>
  <anchor x="353" y="502" name="_top"/>
  <anchor x="408" y="767" name="top"/>
  <outline>
    <contour>
      <point x="383" y="553" type="curve"/>
      <point x="532" y="555" type="line"/>
      <point x="612" y="624"/>
      <point x="691" y="699"/>
      <point x="754" y="776" type="curve"/>
      <point x="515" y="771" type="line"/>
      <point x="478" y="698"/>
      <point x="433" y="626"/>
    </contour>
    <contour>
      <point x="151" y="553" type="curve"/>
      <point x="290" y="555" type="line"/>
      <point x="363" y="624"/>
      <point x="434" y="699"/>
      <point x="489" y="776" type="curve"/>
      <point x="260" y="771" type="line"/>
      <point x="231" y="698"/>
      <point x="194" y="626"/>
    </contour>
  </outline>
</glyph>
<glyph name="dblgravecomb" format="2">
  <unicode hex="030F"/>
  <anchor x="353" y="502" name="_top"/>
  <anchor x="408" y="767" name="top"/>
  <outline>
    <contour>
      <point x="199" y="553" type="curve"/>
      <point x="335" y="555" type="line"/>
      <point x="317" y="629"/>
      <point x="308" y="702"/>
      <point x="305" y="776" type="curve"/>
      <point x="87" y="771" type="line"/>
      <point x="112" y="695"/>
      <point x="152" y="622"/>
    </contour>
    <contour>
      <point x="431" y="553" type="curve"/>
      <point x="563" y="555" type="line"/>
      <point x="553" y="629"/>
      <point x="552" y="702"/>
      <point x="557" y="776" type="curve"/>
      <point x="345" y="771" type="line"/>
      <point x="361" y="695"/>
      <point x="392" y="622"/>
    </contour>
  </outline>
</glyph>
<glyph name="commaaccentcomb" format="2">
  <unicode hex="0326"/>
  <anchor x="247" y="0" name="_bottom"/>
  <anchor x="186" y="-293" name="bottom"/>
  <outline>
    <contour>
      <point x="74" y="-293" type="curve"/>
      <point x="168" y="-291" type="line"/>
      <point x="254" y="-249"/>
      <point x="319" y="-204"/>
      <point x="333" y="-133" type="curve" smooth="yes"/>
      <point x="343" y="-82"/>
      <point x="314" y="-40"/>
      <point x="246" y="-36" type="curve"/>
      <point x="132" y="-45" type="line"/>
      <point x="138" y="-82"/>
      <point x="133" y="-119"/>
      <point x="125" y="-156" type="curve"/>
      <point x="116" y="-203"/>
      <point x="98" y="-242"/>
    </contour>
  </outline>
</glyph>
<glyph name="ogonekcomb" format="2">
  <unicode hex="0328"/>
  <anchor x="247" y="0" name="_ogonek"/>
  <outline>
    <contour>
      <point x="143" y="-228" type="curve" smooth="yes"/>
      <point x="172" y="-228"/>
      <point x="194" y="-224"/>
      <point x="210" y="-220" type="curve"/>
      <point x="236" y="-93" type="line"/>
      <point x="229" y="-95"/>
      <point x="214" y="-98"/>
      <point x="201" y="-99" type="curve"/>
      <point x="172" y="-96"/>
      <point x="155" y="-86"/>
      <point x="159" y="-64" type="curve" smooth="yes"/>
      <point x="164" y="-36"/>
      <point x="199" y="-16"/>
      <point x="252" y="0" type="curve"/>
      <point x="216" y="41" type="line"/>
      <point x="102" y="27" type="line"/>
      <point x="93" y="-15" type="line"/>
      <point x="54" y="-27"/>
      <point x="4" y="-50"/>
      <point x="-7" y="-109" type="curve" smooth="yes"/>
      <point x="-18" y="-169"/>
      <point x="23" y="-228"/>
    </contour>
  </outline>
</glyph>
<glyph name="slashshortcomb" format="2">
  <unicode hex="0337"/>
  <anchor x="299" y="251" name="_center"/>
  <outline>
    <contour>
      <point x="82" y="-88" type="line"/>
      <point x="132" y="-18"/>
      <point x="184" y="42"/>
      <point x="245" y="112" type="curve"/>
      <point x="415" y="308" type="line"/>
      <point x="477" y="380"/>
      <point x="527" y="437"/>
      <point x="591" y="499" type="curve"/>
      <point x="500" y="574" type="line"/>
      <point x="448" y="503"/>
      <point x="398" y="444"/>
      <point x="336" y="372" type="curve"/>
      <point x="170" y="181" type="line"/>
      <point x="109" y="111"/>
      <point x="61" y="57"/>
      <point x="-6" y="-6" type="curve"/>
    </contour>
  </outline>
</glyph>
<glyph name="slashlongcomb" format="2">
  <unicode hex="0338"/>
  <anchor x="307" y="357" name="_center"/>
  <outline>
    <contour>
      <point x="22" y="-96" type="line"/>
      <point x="91" y="-7"/>
      <point x="157" y="76"/>
      <point x="240" y="171" type="curve"/>
      <point x="467" y="432" type="line"/>
      <point x="549" y="526"/>
      <point x="621" y="601"/>
      <point x="704" y="686" type="curve"/>
      <point x="577" y="786" type="line"/>
      <point x="504" y="692"/>
      <point x="442" y="613"/>
      <point x="358" y="516" type="curve"/>
      <point x="136" y="261" type="line"/>
      <point x="54" y="167"/>
      <point x="-14" y="96"/>
      <point x="-98" y="10" type="curve"/>
    </contour>
  </outline>
</glyph>
<glyph name="Germandbls" format="2">
  <advance width="741"/>
  <unicode hex="1E9E"/>
  <outline>
    <contour>
      <point x="394" y="-6" type="curve" smooth="yes"/>
      <point x="607" y="-6"/>
      <point x="680" y="69"/>
      <point x="703" y="179" type="curve" smooth="yes"/>
      <point x="734" y="323"/>
      <point x="649" y="410"/>
      <point x="507" y="438" type="curve"/>
      <point x="488" y="347" type="line"/>
      <point x="590" y="402" type="line"/>
      <point x="628" y="423"/>
      <point x="668" y="442"/>
      <point x="703" y="457" type="curve"/>
      <point x="762" y="656" type="line"/>
      <point x="696" y="683"/>
      <point x="541" y="729"/>
      <point x="432" y="729" type="curve" smooth="yes"/>
      <point x="208" y="729"/>
      <point x="118" y="626"/>
      <point x="79" y="449" type="curve" smooth="yes"/>
      <point x="64" y="380"/>
      <point x="53" y="299"/>
      <point x="38" y="229" type="curve"/>
      <point x="19" y="138"/>
      <point x="-1" y="74"/>
      <point x="-29" y="0" type="curve"/>
      <point x="254" y="0" type="line"/>
      <point x="257" y="74"/>
      <point x="264" y="138"/>
      <point x="283" y="229" type="curve"/>
      <point x="325" y="428" type="line" smooth="yes"/>
      <point x="340" y="501"/>
      <point x="377" y="528"/>
      <point x="436" y="531" type="curve"/>
      <point x="482" y="528"/>
      <point x="534" y="511"/>
      <point x="566" y="487" type="curve"/>
      <point x="575" y="550" type="line"/>
      <point x="487" y="488" type="line"/>
      <point x="456" y="467"/>
      <point x="428" y="450"/>
      <point x="397" y="432" type="curve"/>
      <point x="369" y="294" type="line"/>
      <point x="432" y="284"/>
      <point x="460" y="259"/>
      <point x="453" y="226" type="curve" smooth="yes"/>
      <point x="447" y="198"/>
      <point x="417" y="182"/>
      <point x="365" y="179" type="curve"/>
      <point x="351" y="180"/>
      <point x="339" y="182"/>
      <point x="325" y="185" type="curve"/>
      <point x="286" y="0" type="line"/>
      <point x="303" y="-3"/>
      <point x="378" y="-6"/>
    </contour>
  </outline>
</glyph>
<glyph name="endash" format="2">
  <advance width="640"/>
  <unicode hex="2013"/>
  <outline>
    <contour>
      <point x="29" y="201" type="line"/>
      <point x="106" y="208"/>
      <point x="177" y="209"/>
      <point x="239" y="209" type="curve"/>
      <point x="383" y="209" type="line"/>
      <point x="445" y="209"/>
      <point x="516" y="208"/>
      <point x="589" y="201" type="curve"/>
      <point x="633" y="407" type="line"/>
      <point x="556" y="400"/>
      <point x="485" y="399"/>
      <point x="423" y="399" type="curve"/>
      <point x="279" y="399" type="line"/>
      <point x="217" y="399"/>
      <point x="146" y="400"/>
      <point x="73" y="407" type="curve"/>
    </contour>
  </outline>
</glyph>
<glyph name="emdash" format="2">
  <advance width="810"/>
  <unicode hex="2014"/>
  <outline>
    <contour>
      <point x="29" y="201" type="line"/>
      <point x="129" y="208"/>
      <point x="221" y="209"/>
      <point x="302" y="209" type="curve"/>
      <point x="490" y="209" type="line"/>
      <point x="571" y="209"/>
      <point x="663" y="208"/>
      <point x="759" y="201" type="curve"/>
      <point x="803" y="407" type="line"/>
      <point x="703" y="400"/>
      <point x="611" y="399"/>
      <point x="530" y="399" type="curve"/>
      <point x="342" y="399" type="line"/>
      <point x="261" y="399"/>
      <point x="169" y="400"/>
      <point x="73" y="407" type="curve"/>
    </contour>
  </outline>
</glyph>
<glyph name="franc" format="2">
  <advance width="606"/>
  <unicode hex="20A3"/>
  <outline>
    <contour>
      <point x="25" y="0" type="curve"/>
      <point x="290" y="0" type="line"/>
      <point x="288" y="71"/>
      <point x="301" y="136"/>
      <point x="319" y="222" type="curve"/>
      <point x="362" y="425" type="line"/>
      <point x="381" y="515"/>
      <point x="396" y="581"/>
      <point x="424" y="652" type="curve"/>
      <point x="418" y="690" type="line"/>
      <point x="171" y="690" type="line"/>
      <point x="173" y="618"/>
      <point x="160" y="553"/>
      <point x="141" y="462" type="curve"/>
      <point x="90" y="222" type="line"/>
      <point x="72" y="136"/>
      <point x="58" y="71"/>
    </contour>
    <contour>
      <point x="333" y="498" type="line"/>
      <point x="435" y="498" type="line"/>
      <point x="516" y="498"/>
      <point x="572" y="497"/>
      <point x="621" y="476" type="curve"/>
      <point x="666" y="690" type="line"/>
      <point x="373" y="690" type="line"/>
    </contour>
    <contour>
      <point x="269" y="272" type="line"/>
      <point x="385" y="272" type="line"/>
      <point x="460" y="272"/>
      <point x="511" y="271"/>
      <point x="564" y="262" type="curve"/>
      <point x="601" y="436" type="line"/>
      <point x="547" y="427"/>
      <point x="496" y="426"/>
      <point x="418" y="426" type="curve"/>
      <point x="302" y="426" type="line"/>
    </contour>
    <contour>
      <point x="-12" y="77" type="line"/>
      <point x="65" y="84"/>
      <point x="136" y="85"/>
      <point x="198" y="85" type="curve"/>
      <point x="242" y="85" type="line"/>
      <point x="304" y="85"/>
      <point x="375" y="84"/>
      <point x="448" y="77" type="curve"/>
      <point x="479" y="223" type="line"/>
      <point x="403" y="216"/>
      <point x="331" y="215"/>
      <point x="269" y="215" type="curve"/>
      <point x="225" y="215" type="line"/>
      <point x="163" y="215"/>
      <point x="93" y="216"/>
      <point x="19" y="223" type="curve"/>
    </contour>
  </outline>
</glyph>
<glyph name="lira" format="2">
  <advance width="623"/>
  <unicode hex="20A4"/>
  <outline>
    <contour>
      <point x="-18" y="0" type="line"/>
      <point x="540" y="0" type="line"/>
      <point x="587" y="221" type="line"/>
      <point x="506" y="202"/>
      <point x="438" y="200"/>
      <point x="322" y="200" type="curve"/>
      <point x="195" y="200" type="line"/>
      <point x="227" y="170" type="line"/>
      <point x="329" y="228"/>
      <point x="345" y="276"/>
      <point x="354" y="319" type="curve" smooth="yes"/>
      <point x="375" y="424" type="line" smooth="yes"/>
      <point x="387" y="482"/>
      <point x="423" y="509"/>
      <point x="472" y="513" type="curve"/>
      <point x="494" y="513"/>
      <point x="538" y="502"/>
      <point x="599" y="473" type="curve"/>
      <point x="662" y="674" type="line"/>
      <point x="609" y="687"/>
      <point x="521" y="706"/>
      <point x="445" y="706" type="curve" smooth="yes"/>
      <point x="272" y="706"/>
      <point x="171" y="614"/>
      <point x="138" y="453" type="curve" smooth="yes"/>
      <point x="126" y="395"/>
      <point x="117" y="311"/>
      <point x="102" y="239" type="curve"/>
      <point x="94" y="208"/>
      <point x="81" y="165"/>
      <point x="7" y="120" type="curve"/>
    </contour>
    <contour>
      <point x="68" y="367" type="line"/>
      <point x="143" y="369"/>
      <point x="214" y="370"/>
      <point x="276" y="370" type="curve"/>
      <point x="320" y="370" type="line"/>
      <point x="382" y="370"/>
      <point x="453" y="369"/>
      <point x="528" y="367" type="curve"/>
      <point x="549" y="468" type="line"/>
      <point x="473" y="461"/>
      <point x="401" y="460"/>
      <point x="339" y="460" type="curve"/>
      <point x="295" y="460" type="line"/>
      <point x="233" y="460"/>
      <point x="163" y="461"/>
      <point x="89" y="468" type="curve"/>
    </contour>
    <contour>
      <point x="39" y="233" type="line"/>
      <point x="116" y="240"/>
      <point x="187" y="241"/>
      <point x="249" y="241" type="curve"/>
      <point x="293" y="241" type="line"/>
      <point x="355" y="241"/>
      <point x="426" y="240"/>
      <point x="499" y="233" type="curve"/>
      <point x="521" y="334" type="line"/>
      <point x="445" y="332"/>
      <point x="374" y="331"/>
      <point x="312" y="331" type="curve"/>
      <point x="268" y="331" type="line"/>
      <point x="206" y="331"/>
      <point x="135" y="332"/>
      <point x="61" y="334" type="curve"/>
    </contour>
  </outline>
</glyph>
<glyph name="won" format="2">
  <advance width="1112"/>
  <unicode hex="20A9"/>
  <outline>
    <contour>
      <point x="154" y="0" type="curve"/>
      <point x="446" y="0" type="line"/>
      <point x="455" y="56"/>
      <point x="477" y="124"/>
      <point x="497" y="180" type="curve"/>
      <point x="557" y="349" type="line"/>
      <point x="572" y="349" type="line"/>
      <point x="563" y="177" type="line"/>
      <point x="560" y="120"/>
      <point x="555" y="57"/>
      <point x="541" y="0" type="curve"/>
      <point x="851" y="0" type="line"/>
      <point x="869" y="65"/>
      <point x="904" y="146"/>
      <point x="936" y="218" type="curve"/>
      <point x="1033" y="436" type="line"/>
      <point x="1062" y="501"/>
      <point x="1108" y="605"/>
      <point x="1168" y="690" type="curve"/>
      <point x="867" y="690" type="line"/>
      <point x="854" y="619"/>
      <point x="829" y="538"/>
      <point x="811" y="479" type="curve"/>
      <point x="750" y="282" type="line"/>
      <point x="735" y="282" type="line"/>
      <point x="749" y="472" type="line"/>
      <point x="754" y="537"/>
      <point x="761" y="625"/>
      <point x="778" y="690" type="curve"/>
      <point x="511" y="690" type="line"/>
      <point x="499" y="621"/>
      <point x="475" y="546"/>
      <point x="452" y="477" type="curve"/>
      <point x="387" y="282" type="line"/>
      <point x="371" y="282" type="line"/>
      <point x="391" y="472" type="line"/>
      <point x="398" y="539"/>
      <point x="407" y="623"/>
      <point x="424" y="690" type="curve"/>
      <point x="130" y="690" type="line"/>
      <point x="153" y="605"/>
      <point x="156" y="503"/>
      <point x="158" y="428" type="curve"/>
      <point x="163" y="217" type="line"/>
      <point x="164" y="153"/>
      <point x="165" y="75"/>
    </contour>
    <contour>
      <point x="25" y="275" type="line"/>
      <point x="102" y="282"/>
      <point x="173" y="283"/>
      <point x="235" y="283" type="curve"/>
      <point x="267" y="433" type="line"/>
      <point x="205" y="433"/>
      <point x="134" y="434"/>
      <point x="60" y="441" type="curve"/>
    </contour>
    <contour>
      <point x="891" y="283" type="line"/>
      <point x="953" y="283"/>
      <point x="1024" y="282"/>
      <point x="1097" y="275" type="curve"/>
      <point x="1132" y="441" type="line"/>
      <point x="1056" y="434"/>
      <point x="985" y="433"/>
      <point x="923" y="433" type="curve"/>
    </contour>
  </outline>
</glyph>
<glyph name="rupeeIndian" format="2">
  <advance width="645"/>
  <unicode hex="20B9"/>
  <outline>
    <contour>
      <point x="307" y="220" type="curve"/>
      <point x="438" y="220"/>
      <point x="500" y="288"/>
      <point x="519" y="374" type="curve" smooth="yes"/>
      <point x="535" y="450"/>
      <point x="516" y="503"/>
      <point x="470" y="524" type="curve"/>
      <point x="473" y="540" type="line"/>
      <point x="512" y="540" type="line" smooth="yes"/>
      <point x="559" y="540"/>
      <point x="614" y="538"/>
      <point x="669" y="528" type="curve"/>
      <point x="703" y="690" type="line"/>
      <point x="143" y="690" type="line"/>
      <point x="109" y="528" type="line"/>
      <point x="146" y="538"/>
      <point x="183" y="540"/>
      <point x="218" y="540" type="curve"/>
      <point x="297" y="540"/>
      <point x="312" y="492"/>
      <point x="298" y="424" type="curve" smooth="yes"/>
      <point x="278" y="332"/>
      <point x="239" y="325"/>
      <point x="188" y="325" type="curve"/>
      <point x="147" y="325"/>
      <point x="107" y="325"/>
      <point x="67" y="333" type="curve"/>
      <point x="47" y="235" type="line"/>
      <point x="133" y="235" type="line"/>
      <point x="224" y="224" type="line"/>
      <point x="252" y="224"/>
      <point x="279" y="220"/>
    </contour>
    <contour>
      <point x="227" y="0" type="curve"/>
      <point x="559" y="0" type="line"/>
      <point x="493" y="54"/>
      <point x="428" y="126"/>
      <point x="378" y="182" type="curve"/>
      <point x="261" y="313" type="line"/>
      <point x="47" y="235" type="line"/>
      <point x="139" y="126" type="line"/>
      <point x="170" y="89"/>
      <point x="207" y="44"/>
    </contour>
    <contour>
      <point x="77" y="379" type="line"/>
      <point x="154" y="386"/>
      <point x="225" y="387"/>
      <point x="287" y="387" type="curve"/>
      <point x="431" y="387" type="line"/>
      <point x="493" y="387"/>
      <point x="564" y="386"/>
      <point x="637" y="379" type="curve"/>
      <point x="660" y="485" type="line"/>
      <point x="583" y="478"/>
      <point x="512" y="477"/>
      <point x="450" y="477" type="curve"/>
      <point x="306" y="477" type="line"/>
      <point x="244" y="477"/>
      <point x="173" y="478"/>
      <point x="100" y="485" type="curve"/>
    </contour>
  </outline>
</glyph>
<glyph name="liraTurkish" format="2">
  <advance width="756"/>
  <unicode hex="20BA"/>
  <outline>
    <contour>
      <point x="55" y="0" type="curve"/>
      <point x="267" y="0" type="line"/>
      <point x="326" y="38" type="line"/>
      <point x="332" y="109"/>
      <point x="344" y="171"/>
      <point x="362" y="258" type="curve"/>
      <point x="405" y="463" type="line"/>
      <point x="424" y="553"/>
      <point x="439" y="619"/>
      <point x="471" y="690" type="curve"/>
      <point x="201" y="690" type="line"/>
      <point x="203" y="619"/>
      <point x="190" y="553"/>
      <point x="171" y="463" type="curve"/>
      <point x="119" y="218" type="line"/>
      <point x="101" y="133"/>
      <point x="87" y="71"/>
    </contour>
    <contour>
      <point x="267" y="0" type="line"/>
      <point x="335" y="0" type="line" smooth="yes"/>
      <point x="518" y="0"/>
      <point x="634" y="71"/>
      <point x="703" y="223" type="curve"/>
      <point x="727" y="273"/>
      <point x="744" y="330"/>
      <point x="760" y="393" type="curve"/>
      <point x="518" y="393" type="line"/>
      <point x="511" y="360"/>
      <point x="505" y="332"/>
      <point x="497" y="306" type="curve"/>
      <point x="470" y="232"/>
      <point x="426" y="187"/>
      <point x="354" y="187" type="curve" smooth="yes"/>
      <point x="306" y="187" type="line"/>
    </contour>
    <contour>
      <point x="67" y="227" type="line"/>
      <point x="138" y="265"/>
      <point x="209" y="294"/>
      <point x="271" y="319" type="curve"/>
      <point x="367" y="358" type="line"/>
      <point x="431" y="384"/>
      <point x="500" y="412"/>
      <point x="576" y="434" type="curve"/>
      <point x="552" y="530" type="line"/>
      <point x="479" y="497"/>
      <point x="408" y="468"/>
      <point x="346" y="443" type="curve"/>
      <point x="251" y="404" type="line"/>
      <point x="189" y="379"/>
      <point x="118" y="350"/>
      <point x="43" y="323" type="curve"/>
    </contour>
    <contour>
      <point x="94" y="375" type="line"/>
      <point x="167" y="408"/>
      <point x="238" y="437"/>
      <point x="300" y="462" type="curve"/>
      <point x="396" y="501" type="line"/>
      <point x="460" y="527"/>
      <point x="529" y="555"/>
      <point x="604" y="582" type="curve"/>
      <point x="581" y="678" type="line"/>
      <point x="508" y="640"/>
      <point x="437" y="611"/>
      <point x="375" y="586" type="curve"/>
      <point x="280" y="547" type="line"/>
      <point x="218" y="522"/>
      <point x="147" y="493"/>
      <point x="71" y="471" type="curve"/>
    </contour>
  </outline>
</glyph>
<glyph name="trademark" format="2">
  <advance width="897"/>
  <unicode hex="2122"/>
  <outline>
    <contour>
      <point x="366" y="310" type="curve"/>
      <point x="535" y="310" type="line"/>
      <point x="533" y="340"/>
      <point x="542" y="374"/>
      <point x="550" y="398" type="curve"/>
      <point x="569" y="455" type="line"/>
      <point x="579" y="455" type="line"/>
      <point x="584" y="397" type="line"/>
      <point x="586" y="369"/>
      <point x="586" y="335"/>
      <point x="578" y="310" type="curve"/>
      <point x="706" y="310" type="line"/>
      <point x="707" y="339"/>
      <point x="717" y="372"/>
      <point x="726" y="396" type="curve"/>
      <point x="748" y="455" type="line"/>
      <point x="758" y="455" type="line"/>
      <point x="754" y="401" type="line"/>
      <point x="752" y="375"/>
      <point x="747" y="337"/>
      <point x="733" y="310" type="curve"/>
      <point x="907" y="310" type="line"/>
      <point x="899" y="350"/>
      <point x="902" y="400"/>
      <point x="905" y="439" type="curve"/>
      <point x="915" y="568" type="line"/>
      <point x="919" y="619"/>
      <point x="923" y="659"/>
      <point x="936" y="709" type="curve"/>
      <point x="758" y="709" type="line"/>
      <point x="756" y="685"/>
      <point x="744" y="657"/>
      <point x="732" y="633" type="curve"/>
      <point x="697" y="563" type="line"/>
      <point x="687" y="563" type="line"/>
      <point x="678" y="636" type="line"/>
      <point x="675" y="660"/>
      <point x="674" y="685"/>
      <point x="681" y="709" type="curve"/>
      <point x="500" y="709" type="line"/>
      <point x="497" y="661"/>
      <point x="483" y="623"/>
      <point x="467" y="575" type="curve"/>
      <point x="423" y="444" type="line"/>
      <point x="407" y="396"/>
      <point x="392" y="358"/>
    </contour>
    <contour>
      <point x="111" y="310" type="curve"/>
      <point x="291" y="310" type="line"/>
      <point x="289" y="348"/>
      <point x="295" y="386"/>
      <point x="306" y="438" type="curve"/>
      <point x="330" y="552" type="line"/>
      <point x="341" y="604"/>
      <point x="351" y="641"/>
      <point x="370" y="684" type="curve"/>
      <point x="375" y="709" type="line"/>
      <point x="195" y="709" type="line"/>
      <point x="190" y="684" type="line"/>
      <point x="191" y="641"/>
      <point x="185" y="604"/>
      <point x="174" y="552" type="curve"/>
      <point x="150" y="438" type="line"/>
      <point x="139" y="386"/>
      <point x="129" y="347"/>
    </contour>
    <contour>
      <point x="80" y="559" type="line"/>
      <point x="110" y="570"/>
      <point x="139" y="575"/>
      <point x="175" y="575" type="curve"/>
      <point x="205" y="575" type="line"/>
      <point x="233" y="709" type="line"/>
      <point x="112" y="709" type="line"/>
    </contour>
    <contour>
      <point x="309" y="575" type="line"/>
      <point x="339" y="575" type="line"/>
      <point x="378" y="575"/>
      <point x="404" y="569"/>
      <point x="426" y="559" type="curve"/>
      <point x="458" y="709" type="line"/>
      <point x="337" y="709" type="line"/>
    </contour>
  </outline>
</glyph>
<glyph name="minus" format="2">
  <advance width="590"/>
  <unicode hex="2212"/>
  <outline>
    <contour>
      <point x="30" y="206" type="line"/>
      <point x="107" y="213"/>
      <point x="178" y="214"/>
      <point x="240" y="214" type="curve"/>
      <point x="334" y="214" type="line"/>
      <point x="396" y="214"/>
      <point x="467" y="213"/>
      <point x="540" y="206" type="curve"/>
      <point x="584" y="412" type="line"/>
      <point x="508" y="405"/>
      <point x="437" y="404"/>
      <point x="375" y="404" type="curve"/>
      <point x="281" y="404" type="line"/>
      <point x="219" y="404"/>
      <point x="148" y="405"/>
      <point x="74" y="412" type="curve"/>
    </contour>
  </outline>
</glyph>
<glyph name="divisionslash" format="2">
  <advance width="444"/>
  <unicode hex="2215"/>
  <outline>
    <contour>
      <point x="-53" y="0" type="curve"/>
      <point x="188" y="0" type="line"/>
      <point x="211" y="74"/>
      <point x="240" y="137"/>
      <point x="285" y="228" type="curve"/>
      <point x="406" y="473" type="line"/>
      <point x="454" y="570"/>
      <point x="488" y="636"/>
      <point x="540" y="713" type="curve"/>
      <point x="300" y="713" type="line"/>
      <point x="276" y="636"/>
      <point x="245" y="571"/>
      <point x="199" y="477" type="curve"/>
      <point x="76" y="228" type="line"/>
      <point x="31" y="137"/>
      <point x="-3" y="74"/>
    </contour>
  </outline>
</glyph>
<glyph name="infinity" format="2">
  <advance width="922"/>
  <unicode hex="221E"/>
  <outline>
    <contour>
      <point x="640" y="50" type="curve" smooth="yes"/>
      <point x="793" y="50"/>
      <point x="876" y="139"/>
      <point x="907" y="285" type="curve" smooth="yes"/>
      <point x="936" y="421"/>
      <point x="874" y="570"/>
      <point x="709" y="570" type="curve" smooth="yes"/>
      <point x="577" y="570"/>
      <point x="486" y="464"/>
      <point x="403" y="366" type="curve"/>
      <point x="388" y="274" type="line"/>
      <point x="435" y="177"/>
      <point x="503" y="50"/>
    </contour>
    <contour>
      <point x="238" y="50" type="curve" smooth="yes"/>
      <point x="370" y="50"/>
      <point x="461" y="156"/>
      <point x="544" y="254" type="curve"/>
      <point x="559" y="346" type="line"/>
      <point x="512" y="443"/>
      <point x="444" y="570"/>
      <point x="307" y="570" type="curve" smooth="yes"/>
      <point x="154" y="570"/>
      <point x="71" y="481"/>
      <point x="40" y="335" type="curve" smooth="yes"/>
      <point x="11" y="199"/>
      <point x="73" y="50"/>
    </contour>
    <contour>
      <point x="279" y="222" type="curve"/>
      <point x="244" y="226"/>
      <point x="226" y="270"/>
      <point x="236" y="317" type="curve" smooth="yes"/>
      <point x="247" y="368"/>
      <point x="269" y="394"/>
      <point x="304" y="398" type="curve"/>
      <point x="329" y="396"/>
      <point x="350" y="369"/>
      <point x="375" y="310" type="curve"/>
      <point x="335" y="253"/>
      <point x="303" y="224"/>
    </contour>
    <contour>
      <point x="643" y="222" type="curve"/>
      <point x="618" y="224"/>
      <point x="597" y="251"/>
      <point x="572" y="310" type="curve"/>
      <point x="612" y="367"/>
      <point x="644" y="396"/>
      <point x="668" y="398" type="curve"/>
      <point x="703" y="394"/>
      <point x="721" y="350"/>
      <point x="711" y="303" type="curve" smooth="yes"/>
      <point x="700" y="252"/>
      <point x="678" y="226"/>
    </contour>
  </outline>
</glyph>
<glyph name="H.bar" format="2">
  <advance width="761"/>
  <anchor x="328" y="0" name="bottom"/>
  <anchor x="403" y="357" name="center"/>
  <anchor x="478" y="713" name="top"/>
  <anchor x="140" y="713" name="topleft"/>
  <outline>
    <contour>
      <point x="392" y="0" type="curve"/>
      <point x="676" y="0" type="line"/>
      <point x="679" y="74"/>
      <point x="686" y="138"/>
      <point x="705" y="229" type="curve"/>
      <point x="757" y="474" type="line"/>
      <point x="777" y="569"/>
      <point x="797" y="636"/>
      <point x="826" y="713" type="curve"/>
      <point x="542" y="713" type="line"/>
      <point x="538" y="636"/>
      <point x="531" y="569"/>
      <point x="511" y="474" type="curve"/>
      <point x="459" y="229" type="line"/>
      <point x="440" y="138"/>
      <point x="420" y="74"/>
    </contour>
    <contour>
      <point x="-21" y="0" type="curve"/>
      <point x="263" y="0" type="line"/>
      <point x="266" y="74"/>
      <point x="273" y="138"/>
      <point x="292" y="229" type="curve"/>
      <point x="344" y="474" type="line"/>
      <point x="364" y="569"/>
      <point x="384" y="636"/>
      <point x="413" y="713" type="curve"/>
      <point x="129" y="713" type="line"/>
      <point x="125" y="636"/>
      <point x="118" y="569"/>
      <point x="98" y="474" type="curve"/>
      <point x="46" y="229" type="line"/>
      <point x="27" y="138"/>
      <point x="7" y="74"/>
    </contour>
    <contour>
      <point x="232" y="231" type="line"/>
      <point x="522" y="231" type="line"/>
      <point x="562" y="423" type="line"/>
      <point x="272" y="423" type="line"/>
    </contour>
  </outline>
</glyph>
<glyph name="OE.001" format="2">
  <advance width="1085"/>
  <anchor x="489.648" y="0" name="bottom"/>
  <anchor x="641.201" y="713" name="top"/>
  <outline>
    <contour>
      <point x="373" y="-16" type="curve" smooth="yes"/>
      <point x="591" y="-16"/>
      <point x="710" y="119"/>
      <point x="749" y="315" type="curve"/>
      <point x="787" y="433" type="line"/>
      <point x="787" y="661"/>
      <point x="676" y="729"/>
      <point x="469" y="729" type="curve" smooth="yes"/>
      <point x="222" y="729"/>
      <point x="94" y="603"/>
      <point x="55" y="403" type="curve" smooth="yes"/>
      <point x="12" y="185"/>
      <point x="117" y="-16"/>
    </contour>
    <contour>
      <point x="404" y="182" type="curve"/>
      <point x="324" y="194"/>
      <point x="282" y="272"/>
      <point x="304" y="373" type="curve" smooth="yes"/>
      <point x="324" y="466"/>
      <point x="378" y="521"/>
      <point x="453" y="531" type="curve"/>
      <point x="539" y="519"/>
      <point x="571" y="437"/>
      <point x="550" y="340" type="curve" smooth="yes"/>
      <point x="529" y="241"/>
      <point x="475" y="190"/>
    </contour>
    <contour>
      <point x="461" y="0" type="curve"/>
      <point x="737" y="0" type="line"/>
      <point x="746" y="40" type="line"/>
      <point x="748" y="114"/>
      <point x="756" y="178"/>
      <point x="775" y="269" type="curve"/>
      <point x="809" y="434" type="line"/>
      <point x="829" y="529"/>
      <point x="850" y="596"/>
      <point x="879" y="673" type="curve"/>
      <point x="887" y="713" type="line"/>
      <point x="611" y="713" type="line"/>
      <point x="607" y="636"/>
      <point x="600" y="569"/>
      <point x="580" y="474" type="curve"/>
      <point x="528" y="229" type="line"/>
      <point x="509" y="138"/>
      <point x="489" y="74"/>
    </contour>
    <contour>
      <point x="692" y="0" type="line"/>
      <point x="992" y="0" type="line"/>
      <point x="1037" y="211" type="line"/>
      <point x="974" y="196"/>
      <point x="911" y="193"/>
      <point x="840" y="193" type="curve"/>
      <point x="733" y="193" type="line"/>
    </contour>
    <contour>
      <point x="718" y="271" type="line"/>
      <point x="840" y="271" type="line"/>
      <point x="919" y="271"/>
      <point x="973" y="269"/>
      <point x="1029" y="260" type="curve"/>
      <point x="1070" y="455" type="line"/>
      <point x="1013" y="445"/>
      <point x="958" y="443"/>
      <point x="876" y="443" type="curve"/>
      <point x="754" y="443" type="line"/>
    </contour>
    <contour>
      <point x="786" y="520" type="line"/>
      <point x="893" y="520" type="line"/>
      <point x="979" y="520"/>
      <point x="1037" y="514"/>
      <point x="1091" y="502" type="curve"/>
      <point x="1135" y="713" type="line"/>
      <point x="826" y="713" type="line"/>
    </contour>
  </outline>
</glyph>
<glyph name="_Q_tail" format="2">
  <advance width="783"/>
  <anchor x="339" y="0" name="_bottom"/>
  <outline>
    <contour>
      <point x="454" y="-185" type="curve"/>
      <point x="720" y="-84" type="line"/>
      <point x="646" y="-50"/>
      <point x="600" y="-17"/>
      <point x="558" y="24" type="curve"/>
      <point x="463" y="118" type="line"/>
      <point x="322" y="-2" type="line"/>
      <point x="378" y="-70" type="line"/>
      <point x="405" y="-104"/>
      <point x="433" y="-143"/>
    </contour>
  </outline>
</glyph>
<glyph name="_exclam" format="2">
  <advance width="295"/>
  <outline>
    <contour>
      <point x="66" y="283" type="curve"/>
      <point x="245" y="285" type="line"/>
      <point x="285" y="438"/>
      <point x="326" y="589"/>
      <point x="378" y="739" type="curve"/>
      <point x="121" y="733" type="line"/>
      <point x="111" y="585"/>
      <point x="90" y="435"/>
    </contour>
  </outline>
</glyph>
<glyph name="brevecomb_acutecomb" format="2">
  <anchor x="350.791" y="502" name="_top"/>
  <outline>
    <contour>
      <point x="380" y="538" type="curve" smooth="yes"/>
      <point x="524" y="538"/>
      <point x="583" y="598"/>
      <point x="611" y="742" type="curve"/>
      <point x="469" y="742" type="line"/>
      <point x="464" y="701"/>
      <point x="443" y="673"/>
      <point x="390" y="668" type="curve"/>
      <point x="339" y="673"/>
      <point x="324" y="697"/>
      <point x="333" y="748" type="curve"/>
      <point x="188" y="742" type="line"/>
      <point x="161" y="603"/>
      <point x="238" y="538"/>
    </contour>
    <contour>
      <point x="310" y="764" type="curve"/>
      <point x="450" y="765" type="line"/>
      <point x="515" y="825"/>
      <point x="580" y="891"/>
      <point x="631" y="957" type="curve"/>
      <point x="415" y="953" type="line"/>
      <point x="387" y="890"/>
      <point x="351" y="827"/>
    </contour>
  </outline>
</glyph>
<glyph name="caroncomb.alt" format="2">
  <anchor x="353" y="502" name="_topright"/>
  <outline>
    <contour>
      <point x="397" y="547" type="curve"/>
      <point x="489" y="549" type="line"/>
      <point x="533" y="583"/>
      <point x="609" y="645"/>
      <point x="624" y="712" type="curve" smooth="yes"/>
      <point x="635" y="760"/>
      <point x="604" y="796"/>
      <point x="563" y="804" type="curve"/>
      <point x="460" y="795" type="line"/>
      <point x="458" y="759"/>
      <point x="451" y="721"/>
      <point x="443" y="684" type="curve"/>
      <point x="433" y="637"/>
      <point x="418" y="591"/>
    </contour>
  </outline>
</glyph>
<glyph name="cedi.BRACKET.140" format="2">
  <advance width="652"/>
  <outline>
    <contour>
      <point x="212" y="-137" type="curve"/>
      <point x="396" y="-137" type="line"/>
      <point x="410" y="-20"/>
      <point x="431" y="84"/>
      <point x="454" y="192" type="curve"/>
      <point x="514" y="474" type="line"/>
      <point x="537" y="582"/>
      <point x="560" y="686"/>
      <point x="596" y="803" type="curve"/>
      <point x="412" y="803" type="line"/>
      <point x="398" y="686"/>
      <point x="377" y="582"/>
      <point x="354" y="474" type="curve"/>
      <point x="294" y="192" type="line"/>
      <point x="271" y="84"/>
      <point x="247" y="-20"/>
    </contour>
    <contour>
      <point x="366" y="-15" type="curve" smooth="yes"/>
      <point x="438" y="-15"/>
      <point x="510" y="4"/>
      <point x="561" y="15" type="curve"/>
      <point x="599" y="240" type="line"/>
      <point x="535" y="197"/>
      <point x="457" y="174"/>
      <point x="414" y="174" type="curve"/>
      <point x="304" y="178"/>
      <point x="270" y="265"/>
      <point x="289" y="358" type="curve" smooth="yes"/>
      <point x="312" y="468"/>
      <point x="382" y="506"/>
      <point x="453" y="510" type="curve"/>
      <point x="484" y="510"/>
      <point x="547" y="490"/>
      <point x="636" y="441" type="curve"/>
      <point x="698" y="654" type="line"/>
      <point x="639" y="676"/>
      <point x="551" y="706"/>
      <point x="457" y="706" type="curve" smooth="yes"/>
      <point x="222" y="706"/>
      <point x="94" y="591"/>
      <point x="52" y="387" type="curve" smooth="yes"/>
      <point x="6" y="167"/>
      <point x="120" y="-15"/>
    </contour>
  </outline>
</glyph>
<glyph name="cent.BRACKET.140" format="2">
  <advance width="474"/>
  <outline>
    <contour>
      <point x="122" y="-137" type="curve"/>
      <point x="296" y="-137" type="line"/>
      <point x="308" y="-22"/>
      <point x="331" y="84"/>
      <point x="354" y="193" type="curve"/>
      <point x="376" y="298" type="line"/>
      <point x="399" y="407"/>
      <point x="421" y="510"/>
      <point x="458" y="628" type="curve"/>
      <point x="284" y="628" type="line"/>
      <point x="271" y="511"/>
      <point x="249" y="406"/>
      <point x="226" y="298" type="curve"/>
      <point x="204" y="193" type="line"/>
      <point x="182" y="88"/>
      <point x="159" y="-19"/>
    </contour>
    <contour>
      <point x="290" y="-13" type="curve" smooth="yes"/>
      <point x="326" y="-13"/>
      <point x="374" y="-2"/>
      <point x="401" y="6" type="curve"/>
      <point x="432" y="194" type="line"/>
      <point x="402" y="178"/>
      <point x="359" y="166"/>
      <point x="336" y="166" type="curve"/>
      <point x="274" y="168"/>
      <point x="232" y="201"/>
      <point x="247" y="265" type="curve" smooth="yes"/>
      <point x="258" y="310"/>
      <point x="286" y="328"/>
      <point x="327" y="333" type="curve"/>
      <point x="348" y="333"/>
      <point x="391" y="322"/>
      <point x="450" y="294" type="curve"/>
      <point x="503" y="482" type="line"/>
      <point x="460" y="496"/>
      <point x="388" y="517"/>
      <point x="326" y="517" type="curve" smooth="yes"/>
      <point x="154" y="517"/>
      <point x="54" y="425"/>
      <point x="24" y="284" type="curve" smooth="yes"/>
      <point x="-15" y="100"/>
      <point x="97" y="-13"/>
    </contour>
  </outline>
</glyph>
<glyph name="circumflexcomb.case" format="2">
  <anchor x="353" y="502" name="_top"/>
  <anchor x="404" y="745" name="top"/>
  <outline>
    <contour>
      <point x="446" y="553" type="curve"/>
      <point x="586" y="555" type="line"/>
      <point x="558" y="621"/>
      <point x="539" y="688"/>
      <point x="524" y="754" type="curve"/>
      <point x="303" y="754" type="line"/>
      <point x="338" y="684"/>
      <point x="388" y="617"/>
    </contour>
    <contour>
      <point x="142" y="554" type="curve"/>
      <point x="293" y="554" type="line"/>
      <point x="366" y="616"/>
      <point x="438" y="685"/>
      <point x="495" y="754" type="curve"/>
      <point x="274" y="754" type="line"/>
      <point x="234" y="688"/>
      <point x="192" y="621"/>
    </contour>
  </outline>
</glyph>
<glyph name="circumflexcomb_acutecomb.case" format="2">
  <anchor x="353" y="502" name="_top"/>
  <outline>
    <contour>
      <point x="537" y="704" type="curve"/>
      <point x="677" y="705" type="line"/>
      <point x="742" y="765"/>
      <point x="807" y="831"/>
      <point x="858" y="897" type="curve"/>
      <point x="642" y="893" type="line"/>
      <point x="614" y="830"/>
      <point x="578" y="767"/>
    </contour>
    <contour>
      <point x="157" y="554" type="curve"/>
      <point x="298" y="554" type="line"/>
      <point x="366" y="613"/>
      <point x="433" y="678"/>
      <point x="486" y="745" type="curve"/>
      <point x="280" y="745" type="line"/>
      <point x="243" y="681"/>
      <point x="203" y="618"/>
    </contour>
    <contour>
      <point x="440" y="553" type="curve"/>
      <point x="571" y="555" type="line"/>
      <point x="545" y="618"/>
      <point x="527" y="681"/>
      <point x="513" y="745" type="curve"/>
      <point x="307" y="745" type="line"/>
      <point x="340" y="678"/>
      <point x="386" y="614"/>
    </contour>
  </outline>
</glyph>
<glyph name="circumflexcomb_hookabovecomb" format="2">
  <anchor x="353" y="502" name="_top"/>
  <outline>
    <contour>
      <point x="440" y="553" type="curve"/>
      <point x="571" y="555" type="line"/>
      <point x="547" y="625"/>
      <point x="530" y="694"/>
      <point x="517" y="764" type="curve"/>
      <point x="311" y="764" type="line"/>
      <point x="343" y="690"/>
      <point x="388" y="620"/>
    </contour>
    <contour>
      <point x="157" y="554" type="curve"/>
      <point x="298" y="554" type="line"/>
      <point x="367" y="619"/>
      <point x="436" y="691"/>
      <point x="490" y="764" type="curve"/>
      <point x="284" y="764" type="line"/>
      <point x="246" y="694"/>
      <point x="205" y="625"/>
    </contour>
    <contour>
      <point x="539" y="714" type="line"/>
      <point x="643" y="714" type="line"/>
      <point x="645" y="724" type="line"/>
      <point x="724" y="739"/>
      <point x="776" y="772"/>
      <point x="788" y="830" type="curve" smooth="yes"/>
      <point x="804" y="909"/>
      <point x="722" y="939"/>
      <point x="649" y="939" type="curve" smooth="yes"/>
      <point x="618" y="939"/>
      <point x="544" y="925"/>
      <point x="518" y="920" type="curve"/>
      <point x="502" y="806" type="line"/>
      <point x="540" y="818"/>
      <point x="596" y="835"/>
      <point x="610" y="835" type="curve"/>
      <point x="629" y="833"/>
      <point x="641" y="823"/>
      <point x="638" y="810" type="curve" smooth="yes"/>
      <point x="633" y="790"/>
      <point x="594" y="775"/>
      <point x="549" y="761" type="curve"/>
    </contour>
  </outline>
</glyph>
<glyph name="circumflexcomb_tildecomb.case" format="2">
  <anchor x="353" y="502" name="_top"/>
  <outline>
    <contour>
      <point x="157" y="554" type="curve"/>
      <point x="298" y="554" type="line"/>
      <point x="366" y="613"/>
      <point x="433" y="678"/>
      <point x="486" y="745" type="curve"/>
      <point x="280" y="745" type="line"/>
      <point x="243" y="681"/>
      <point x="203" y="618"/>
    </contour>
    <contour>
      <point x="440" y="553" type="curve"/>
      <point x="571" y="555" type="line"/>
      <point x="545" y="618"/>
      <point x="527" y="681"/>
      <point x="513" y="745" type="curve"/>
      <point x="307" y="745" type="line"/>
      <point x="340" y="678"/>
      <point x="386" y="614"/>
    </contour>
    <contour>
      <point x="497" y="760" type="curve" smooth="yes"/>
      <point x="563" y="760"/>
      <point x="615" y="822"/>
      <point x="635" y="932" type="curve"/>
      <point x="537" y="932" type="line"/>
      <point x="526" y="915"/>
      <point x="510" y="894"/>
      <point x="496" y="892" type="curve"/>
      <point x="476" y="895"/>
      <point x="425" y="951"/>
      <point x="358" y="951" type="curve" smooth="yes"/>
      <point x="288" y="951"/>
      <point x="232" y="889"/>
      <point x="212" y="779" type="curve"/>
      <point x="309" y="779" type="line"/>
      <point x="320" y="794"/>
      <point x="340" y="817"/>
      <point x="355" y="819" type="curve"/>
      <point x="379" y="816"/>
      <point x="424" y="760"/>
    </contour>
  </outline>
</glyph>
<glyph name="dblgravecomb.case" format="2">
  <anchor x="353" y="502" name="_top"/>
  <anchor x="406" y="757" name="top"/>
  <outline>
    <contour>
      <point x="199" y="553" type="curve"/>
      <point x="335" y="555" type="line"/>
      <point x="317" y="622"/>
      <point x="308" y="688"/>
      <point x="305" y="756" type="curve"/>
      <point x="87" y="751" type="line"/>
      <point x="112" y="682"/>
      <point x="152" y="616"/>
    </contour>
    <contour>
      <point x="431" y="553" type="curve"/>
      <point x="563" y="555" type="line"/>
      <point x="553" y="622"/>
      <point x="552" y="688"/>
      <point x="557" y="756" type="curve"/>
      <point x="345" y="751" type="line"/>
      <point x="361" y="682"/>
      <point x="392" y="616"/>
    </contour>
  </outline>
</glyph>
<glyph name="dollar.BRACKET.140" format="2">
  <advance width="588"/>
  <outline>
    <contour>
      <point x="262" y="-15" type="curve" smooth="yes"/>
      <point x="445" y="-15"/>
      <point x="526" y="38"/>
      <point x="555" y="179" type="curve" smooth="yes"/>
      <point x="580" y="299"/>
      <point x="540" y="362"/>
      <point x="398" y="413" type="curve" smooth="yes"/>
      <point x="308" y="445"/>
      <point x="278" y="465"/>
      <point x="283" y="486" type="curve" smooth="yes"/>
      <point x="287" y="506"/>
      <point x="317" y="515"/>
      <point x="360" y="515" type="curve"/>
      <point x="394" y="515"/>
      <point x="473" y="492"/>
      <point x="560" y="451" type="curve"/>
      <point x="619" y="644" type="line"/>
      <point x="563" y="659"/>
      <point x="438" y="700"/>
      <point x="347" y="700" type="curve" smooth="yes"/>
      <point x="183" y="700"/>
      <point x="105" y="640"/>
      <point x="78" y="509" type="curve" smooth="yes"/>
      <point x="50" y="373"/>
      <point x="112" y="313"/>
      <point x="218" y="272" type="curve" smooth="yes"/>
      <point x="291" y="244"/>
      <point x="355" y="223"/>
      <point x="349" y="195" type="curve" smooth="yes"/>
      <point x="346" y="178"/>
      <point x="320" y="166"/>
      <point x="268" y="166" type="curve"/>
      <point x="211" y="166"/>
      <point x="116" y="200"/>
      <point x="48" y="238" type="curve"/>
      <point x="-10" y="37" type="line"/>
      <point x="44" y="19"/>
      <point x="136" y="-15"/>
    </contour>
    <contour>
      <point x="127" y="-137" type="curve"/>
      <point x="311" y="-137" type="line"/>
      <point x="325" y="-20"/>
      <point x="346" y="84"/>
      <point x="369" y="192" type="curve"/>
      <point x="429" y="474" type="line"/>
      <point x="452" y="582"/>
      <point x="475" y="686"/>
      <point x="511" y="803" type="curve"/>
      <point x="327" y="803" type="line"/>
      <point x="313" y="686"/>
      <point x="292" y="582"/>
      <point x="269" y="474" type="curve"/>
      <point x="209" y="192" type="line"/>
      <point x="186" y="84"/>
      <point x="162" y="-20"/>
    </contour>
  </outline>
</glyph>
<glyph name="five.dnom" format="2">
  <advance width="442"/>
  <outline>
    <contour>
      <point x="165" y="-16" type="curve" smooth="yes"/>
      <point x="312" y="-16"/>
      <point x="373" y="37"/>
      <point x="392" y="125" type="curve" smooth="yes"/>
      <point x="413" y="221"/>
      <point x="351" y="288"/>
      <point x="276" y="288" type="curve" smooth="yes"/>
      <point x="253" y="288"/>
      <point x="233" y="283"/>
      <point x="212" y="274" type="curve"/>
      <point x="200" y="274" type="line"/>
      <point x="204" y="291" type="line"/>
      <point x="211" y="318"/>
      <point x="220" y="351"/>
      <point x="233" y="374" type="curve"/>
      <point x="171" y="324" type="line"/>
      <point x="243" y="324" type="line"/>
      <point x="299" y="324"/>
      <point x="357" y="324"/>
      <point x="410" y="308" type="curve"/>
      <point x="442" y="462" type="line"/>
      <point x="82" y="462" type="line"/>
      <point x="80" y="403"/>
      <point x="67" y="336"/>
      <point x="53" y="270" type="curve"/>
      <point x="35" y="187" type="line"/>
      <point x="104" y="174" type="line"/>
      <point x="124" y="187"/>
      <point x="147" y="192"/>
      <point x="167" y="192" type="curve"/>
      <point x="209" y="190"/>
      <point x="222" y="171"/>
      <point x="218" y="152" type="curve" smooth="yes"/>
      <point x="214" y="132"/>
      <point x="191" y="124"/>
      <point x="157" y="122" type="curve"/>
      <point x="120" y="122"/>
      <point x="59" y="144"/>
      <point x="15" y="166" type="curve"/>
      <point x="-25" y="18" type="line"/>
      <point x="14" y="9"/>
      <point x="80" y="-16"/>
    </contour>
  </outline>
</glyph>
<glyph name="hungarumlautcomb.case" format="2">
  <anchor x="353" y="502" name="_top"/>
  <anchor x="406" y="757" name="top"/>
  <outline>
    <contour>
      <point x="383" y="553" type="curve"/>
      <point x="532" y="555" type="line"/>
      <point x="612" y="618"/>
      <point x="691" y="686"/>
      <point x="754" y="756" type="curve"/>
      <point x="515" y="751" type="line"/>
      <point x="478" y="685"/>
      <point x="433" y="619"/>
    </contour>
    <contour>
      <point x="151" y="553" type="curve"/>
      <point x="290" y="555" type="line"/>
      <point x="363" y="618"/>
      <point x="434" y="686"/>
      <point x="489" y="756" type="curve"/>
      <point x="260" y="751" type="line"/>
      <point x="231" y="685"/>
      <point x="194" y="619"/>
    </contour>
  </outline>
</glyph>
<glyph name="macroncomb.narrow" format="2">
  <anchor x="353" y="502" name="_top"/>
  <anchor x="398" y="717" name="top"/>
  <outline>
    <contour>
      <point x="209" y="555" type="line"/>
      <point x="257" y="561"/>
      <point x="309" y="563"/>
      <point x="366" y="563" type="curve"/>
      <point x="423" y="563"/>
      <point x="475" y="561"/>
      <point x="521" y="555" type="curve"/>
      <point x="558" y="731" type="line"/>
      <point x="510" y="725"/>
      <point x="457" y="723"/>
      <point x="400" y="723" type="curve"/>
      <point x="343" y="723"/>
      <point x="292" y="725"/>
      <point x="246" y="731" type="curve"/>
    </contour>
  </outline>
</glyph>
<glyph name="naira.BRACKET.140" format="2">
  <advance width="854"/>
  <outline>
    <contour>
      <point x="45" y="0" type="curve"/>
      <point x="300" y="0" type="line"/>
      <point x="298" y="73"/>
      <point x="312" y="144"/>
      <point x="330" y="231" type="curve"/>
      <point x="347" y="313" type="line"/>
      <point x="362" y="313" type="line"/>
      <point x="410" y="191" type="line"/>
      <point x="439" y="118"/>
      <point x="463" y="56"/>
      <point x="467" y="0" type="curve"/>
      <point x="703" y="0" type="line"/>
      <point x="700" y="71"/>
      <point x="713" y="133"/>
      <point x="731" y="218" type="curve"/>
      <point x="783" y="463" type="line"/>
      <point x="802" y="553"/>
      <point x="816" y="619"/>
      <point x="849" y="690" type="curve"/>
      <point x="594" y="690" type="line"/>
      <point x="596" y="614"/>
      <point x="581" y="542"/>
      <point x="560" y="442" type="curve"/>
      <point x="545" y="371" type="line"/>
      <point x="529" y="371" type="line"/>
      <point x="482" y="497" type="line"/>
      <point x="459" y="558"/>
      <point x="435" y="623"/>
      <point x="428" y="690" type="curve"/>
      <point x="191" y="690" type="line"/>
      <point x="193" y="617"/>
      <point x="180" y="552"/>
      <point x="161" y="461" type="curve"/>
      <point x="109" y="218" type="line"/>
      <point x="91" y="133"/>
      <point x="77" y="71"/>
    </contour>
    <contour>
      <point x="30" y="275" type="line"/>
      <point x="107" y="282"/>
      <point x="178" y="283"/>
      <point x="240" y="283" type="curve"/>
      <point x="628" y="283" type="line"/>
      <point x="690" y="283"/>
      <point x="761" y="282"/>
      <point x="834" y="275" type="curve"/>
      <point x="869" y="441" type="line"/>
      <point x="793" y="434"/>
      <point x="722" y="433"/>
      <point x="660" y="433" type="curve"/>
      <point x="272" y="433" type="line"/>
      <point x="210" y="433"/>
      <point x="139" y="434"/>
      <point x="65" y="441" type="curve"/>
    </contour>
  </outline>
</glyph>
<glyph name="two.dnom" format="2">
  <advance width="436"/>
  <outline>
    <contour>
      <point x="-24" y="0" type="line"/>
      <point x="354" y="0" type="line"/>
      <point x="387" y="162" type="line"/>
      <point x="335" y="147"/>
      <point x="284" y="146"/>
      <point x="234" y="146" type="curve"/>
      <point x="171" y="146" type="line"/>
      <point x="186" y="106" type="line"/>
      <point x="257" y="144" type="line"/>
      <point x="360" y="198"/>
      <point x="406" y="237"/>
      <point x="421" y="307" type="curve" smooth="yes"/>
      <point x="442" y="407"/>
      <point x="368" y="477"/>
      <point x="238" y="477" type="curve" smooth="yes"/>
      <point x="187" y="477"/>
      <point x="108" y="457"/>
      <point x="67" y="446" type="curve"/>
      <point x="50" y="283" type="line"/>
      <point x="106" y="310"/>
      <point x="170" y="334"/>
      <point x="196" y="334" type="curve"/>
      <point x="234" y="332"/>
      <point x="245" y="322"/>
      <point x="239" y="298" type="curve" smooth="yes"/>
      <point x="228" y="256"/>
      <point x="173" y="220"/>
      <point x="78" y="160" type="curve"/>
      <point x="50" y="143"/>
      <point x="23" y="127"/>
      <point x="0" y="119" type="curve"/>
    </contour>
  </outline>
</glyph>
